<svg xmlns="http://www.w3.org/2000/svg" width="300" height="157.199" viewBox="0 0 300 157.199">
  <g id="Group_19467" data-name="Group 19467" transform="translate(-172.647 -261.565)">
    <path id="Path_60794" data-name="Path 60794" d="M216.412,421.324s-34.725-37.284-5.873-77.649c25.6-35.815,55.447-33.367,77.346-18.833,9.327,6.19,36.217.763,59.1-35.68,31.212-49.7,139.4-19.556,119.675,56.906-9.546,37,29.053,38.347,9.385,75.334Z" transform="translate(-23.713 -2.934)" fill="#ebf3fa"/>
    <g id="Group_19417" data-name="Group 19417" transform="translate(196.182 367.883)">
      <rect id="Rectangle_3439" data-name="Rectangle 3439" width="33.399" height="33.399" transform="matrix(0.736, -0.677, 0.677, 0.736, 0, 22.618)" fill="#dfebfd"/>
      <rect id="Rectangle_3440" data-name="Rectangle 3440" width="33.399" height="6.727" transform="matrix(0.736, -0.677, 0.677, 0.736, 0, 22.618)" fill="#bed7fb"/>
    </g>
    <g id="Group_19418" data-name="Group 19418" transform="translate(281.613 261.565)">
      <path id="Path_60795" data-name="Path 60795" d="M1337.7,308.477l16.851,2.4-11.183-7.622-.569,2.443-4.1.742Z" transform="translate(-1326.785 -298.968)" fill="#9ec3f6"/>
      <path id="Path_60796" data-name="Path 60796" d="M1259.386,308.272l-14.023-7.23-13.744-.691Z" transform="translate(-1231.619 -296.359)" fill="#cde0fb"/>
      <path id="Path_60797" data-name="Path 60797" d="M1392.79,265.855l11.183,7.622-8.657-11.912Z" transform="translate(-1376.206 -261.565)" fill="#cde0fb"/>
    </g>
    <g id="Group_19422" data-name="Group 19422" transform="translate(360.702 280.643)">
      <path id="Path_60798" data-name="Path 60798" d="M2179.37,658.093l-4.238,3.042-4.261-3.009a5.218,5.218,0,0,1,8.5-.033Z" transform="translate(-2153.31 -634.419)" fill="#fff"/>
      <g id="Group_19419" data-name="Group 19419" transform="translate(11.508 14.088)">
        <path id="Path_60799" data-name="Path 60799" d="M2122.382,583.886a12.6,12.6,0,0,0-10.31,5.359l2.689,1.889a9.318,9.318,0,0,1,15.2-.055l2.68-1.922A12.61,12.61,0,0,0,2122.382,583.886Z" transform="translate(-2112.071 -583.886)" fill="#fff"/>
      </g>
      <g id="Group_19420" data-name="Group 19420" transform="translate(0 0)">
        <path id="Path_60800" data-name="Path 60800" d="M2022.051,446.969a26.654,26.654,0,0,0-21.819,11.332l2.691,1.889a23.4,23.4,0,0,1,38.158-.143l2.668-1.922A26.654,26.654,0,0,0,2022.051,446.969Z" transform="translate(-2000.232 -446.969)" fill="#fff"/>
      </g>
      <g id="Group_19421" data-name="Group 19421" transform="translate(6.259 7.709)">
        <path id="Path_60801" data-name="Path 60801" d="M2076.622,521.884a19.069,19.069,0,0,0-15.56,8.038l2.69,1.888a15.807,15.807,0,0,1,25.673-.1l2.668-1.91A19.064,19.064,0,0,0,2076.622,521.884Z" transform="translate(-2061.062 -521.884)" fill="#fff"/>
      </g>
    </g>
    <path id="Path_60802" data-name="Path 60802" d="M294.6,330.672l-3.886-.089c1.249,1.618,1.529,3.109.752,4.37-.777,1.287-2.637,2.344-5.415,3.147a50.216,50.216,0,0,0-68.762-62.8l-.007,0c-2.158-.659-4.261-1.2-6.289-1.61-10.24-2.078-17.506-.642-20.458,4.044-2.809,4.456-1.28,11.165,4.294,18.989l0,0a50.552,50.552,0,0,0-3.325,7.645c-10.473.624-16.079,2.467-18.118,5.806-2.37,3.886.866,9.1,11.225,14.172,1.427.7,2.956,1.389,4.561,2.077a50.2,50.2,0,0,0,95.888,14.129c5.109-1.057,8.473-2.714,9.81-4.905A4.52,4.52,0,0,0,294.6,330.672Zm-11.989,8.218a77.386,77.386,0,0,1-12.6,1.019,184.622,184.622,0,0,1-25.831-1.74q1.175-2.557,2.3-5.249a71.064,71.064,0,0,0,8.365,2.274,42.373,42.373,0,0,0,8.352.929c5.848,0,10.037-1.688,12.106-4.973a8.584,8.584,0,0,0,.832-1.721h-2.981c-.049.091-.1.18-.157.268-1.537,2.44-4.971,3.7-9.794,3.7a39.782,39.782,0,0,1-7.818-.874,68.124,68.124,0,0,1-7.873-2.13q1.077-2.693,2.089-5.484c1.817-5.01,3.373-9.976,4.631-14.746a142.086,142.086,0,0,0,31.086.777,47.536,47.536,0,0,1,.975,9.616A46.98,46.98,0,0,1,282.612,338.89Zm-62.1,24.88c-1.45-.526-2.186-2.607-2.548-4.259a37.336,37.336,0,0,1-.3-10.611c.19-2.19.5-4.518.908-6.952a129.117,129.117,0,0,1,17.557,6.075c-1.291,2.226-2.6,4.289-3.9,6.16a37.339,37.339,0,0,1-7.032,7.952C223.857,363.171,221.959,364.3,220.509,363.77Zm16.931-18.078a131.749,131.749,0,0,0-18.392-6.37q.329-1.7.722-3.448,2.6.591,5.267,1.142c5.2,1.064,10.4,1.968,15.478,2.7Q239,342.84,237.44,345.693Zm-11.257-10.561q-3.016-.621-5.94-1.295c.917-3.815,2.043-7.792,3.358-11.845a116.239,116.239,0,0,0,20.367,10.045q-1.238,2.957-2.54,5.753C236.429,337.073,231.314,336.184,226.183,335.132Zm-16.693-51.5c3.8,7.784,11.121,14.2,19,18.451-1.909,4.159-3.727,8.6-5.4,13.208q-.467,1.289-.911,2.573c-9.985-6.5-18.439-13.957-23.984-21.175l0,0A47.491,47.491,0,0,1,209.489,283.635Zm42.7-7.2c1.45.526,2.186,2.607,2.548,4.259a37.334,37.334,0,0,1,.3,10.611,105.871,105.871,0,0,1-2.773,15.852,75.972,75.972,0,0,1-20.272-6.266,107.859,107.859,0,0,1,8.481-14.869,37.339,37.339,0,0,1,7.032-7.952,7.229,7.229,0,0,1,3.887-1.77A2.329,2.329,0,0,1,252.185,276.433Zm-.587,33.305c-1.226,4.612-2.735,9.415-4.494,14.265q-1.017,2.8-2.1,5.513a113.8,113.8,0,0,1-20.515-10.181q.534-1.563,1.1-3.134c1.634-4.506,3.408-8.842,5.267-12.9A78.314,78.314,0,0,0,251.6,309.738Zm20.847-22.614A47.123,47.123,0,0,1,284.7,308.319a138.735,138.735,0,0,1-29.808-.745,108.131,108.131,0,0,0,2.788-16.04c.462-5.31.406-11.6-1.747-15.139A46.991,46.991,0,0,1,272.445,287.124Zm-33.419-13.849a47.356,47.356,0,0,1,9.644.983c-3.714,1.617-7.505,6.116-10.383,10.242a110.415,110.415,0,0,0-8.665,15.175c-7.5-4.074-14.58-10.319-17.965-17.677A47.11,47.11,0,0,1,239.025,273.275Zm-46.185,5.916c1.537-2.44,4.972-3.7,9.794-3.7a39.776,39.776,0,0,1,7.818.874q1.643.333,3.353.783h0a50.428,50.428,0,0,0-17.465,16.969l0,0C192.08,287.8,190.8,282.431,192.841,279.191Zm3.936,20.113v0c5.839,7.3,14.446,14.76,24.5,21.231-1.426,4.34-2.643,8.605-3.624,12.693a176.714,176.714,0,0,1-25.683-8.108,47.072,47.072,0,0,1,4.8-25.813Zm-9.849,23.545c-9.033-4.408-13.161-8.664-11.314-11.684,1.491-2.446,6.918-4.1,15.225-4.714a50.452,50.452,0,0,0-1.911,17.34C188.24,323.486,187.578,323.168,186.928,322.85Zm30.253,12.423q-.386,1.724-.713,3.4-.87-.211-1.74-.41a105.664,105.664,0,0,0-20.576-2.763,46.21,46.21,0,0,1-1.859-7.805A187.632,187.632,0,0,0,217.181,335.273Zm-22.041,2.92a106.469,106.469,0,0,1,19,2.658q.925.21,1.848.438c-.443,2.586-.771,5.057-.973,7.38-.383,4.4-.41,9.475.818,13.1a47.526,47.526,0,0,1-20.691-23.575Zm29.55,27.432c3.5-1.833,7.011-6.043,9.717-9.922,1.4-2,2.791-4.215,4.168-6.6a133.607,133.607,0,0,1,22.744,13.158A47.349,47.349,0,0,1,224.69,365.625Zm47.755-11.637a46.918,46.918,0,0,1-8.6,6.816,136.4,136.4,0,0,0-23.966-14.033c1.153-2.112,2.289-4.343,3.4-6.672a204.251,204.251,0,0,0,21.79,1.785c1.758.051,3.465.051,5.122.038a91.154,91.154,0,0,0,11.39-.764A46.972,46.972,0,0,1,272.445,353.988Z" transform="translate(0 -7.899)" fill="#adcbf9"/>
    <g id="Group_19444" data-name="Group 19444" transform="translate(196.009 285.7)">
      <g id="Group_19423" data-name="Group 19423" transform="translate(0 0)">
        <path id="Path_60803" data-name="Path 60803" d="M1071.087,925.721l-6.94,82.522s-.727,5,2.994,5.011c6.118.015,30.45,0,30.45,0s-4.6-1.041-4.549-3.384c.066-2.762,8.112-84.93,8.112-84.93Z" transform="translate(-995.724 -880.815)" fill="#d86713"/>
        <path id="Path_60804" data-name="Path 60804" d="M1117,998.7c-1.2,0-24.444.076-30.4,0-2.6-.032-3.051-2.308-3.073-3.782a7.416,7.416,0,0,1,.079-1.228l.18-2.145.46-5.467.406-4.83.522-6.206.44-5.238,4.932-58.638,30.067-.78s-3.389,34.387-5.786,59.418c-.268,2.789-.522,5.463-.758,7.959q-.115,1.2-.221,2.335c-.222,2.368-.425,4.543-.6,6.463-.094,1.012-.179,1.952-.257,2.814-.306,3.376-.485,5.531-.488,5.941a3.474,3.474,0,0,0,.058.668C1113.054,998.616,1116.551,998.7,1117,998.7Z" transform="translate(-1013.161 -867.76)" fill="#f99746"/>
        <path id="Path_60805" data-name="Path 60805" d="M422.463,496.123l16.905,67.905,2.315,9.3,7.874,31.628h146.28L566.816,496.123Z" transform="translate(-420.12 -496.123)" fill="#f99746"/>
        <path id="Path_60806" data-name="Path 60806" d="M402.034,496.122l-2.343.781,26.322,110.415,3.115-2.362Z" transform="translate(-399.691 -496.122)" fill="#ee9849"/>
        <path id="Path_60807" data-name="Path 60807" d="M655.5,1556.172h145.38l4.015-2.363H658.613Z" transform="translate(-629.176 -1444.974)" fill="#d86713"/>
        <rect id="Rectangle_3441" data-name="Rectangle 3441" width="31.477" height="1.496" transform="translate(108.852 132.47) rotate(180)" fill="#f1a34f"/>
        <path id="Path_60808" data-name="Path 60808" d="M586.71,584.9l-23.736-87.34H420.188v-1.439H564.775l23.656,88.585Z" transform="translate(-418.079 -496.122)" fill="#f1a34f"/>
        <path id="Path_60809" data-name="Path 60809" d="M1120.29,1576.759l-.163,1.144-29.6,5.98.407-4.83.193-2.294Z" transform="translate(-1019.44 -1465.565)" fill="#d86713"/>
        <path id="Path_60810" data-name="Path 60810" d="M1117.009,1687.356c-1.2,0-24.444.077-30.4,0-2.6-.032-3.052-2.308-3.073-3.781l29.463-5.543c-.306,3.376-.485,5.531-.487,5.941a3.452,3.452,0,0,0,.058.668C1113.062,1687.27,1116.557,1687.356,1117.009,1687.356Z" transform="translate(-1013.168 -1556.415)" fill="#d86713" opacity="0.4"/>
        <path id="Path_60811" data-name="Path 60811" d="M681.382,1256.027l-64.258,22.033-7.874-31.629Z" transform="translate(-587.686 -1169.226)" fill="#d86713" opacity="0.4"/>
        <path id="Path_60812" data-name="Path 60812" d="M422.46,496.122H566.813l23.422,87.468H443.492Z" transform="translate(-420.117 -496.122)" fill="#699dee"/>
      </g>
      <path id="Path_60813" data-name="Path 60813" d="M1365.894,1419.761a4.946,4.946,0,0,0-4.639-3.884,3.108,3.108,0,0,0-3.129,3.884,4.947,4.947,0,0,0,4.64,3.884A3.108,3.108,0,0,0,1365.894,1419.761Z" transform="translate(-1259.438 -1321.237)" fill="#d86713"/>
      <path id="Path_60814" data-name="Path 60814" d="M635.561,620.647H500.4L485.1,559.671,483.923,555l-1-3.988-.8-3.193-1.546-6.159h133.21l.093.339,1.6,5.82.88,3.193,1.1,3.988,1.289,4.676Z" transform="translate(-472.251 -536.969)" fill="#e9f3fe"/>
      <path id="Path_60815" data-name="Path 60815" d="M635.561,622.673H500.4L485.1,561.7l-1.173-4.676-1-3.989-.8-3.193-1.546-6.159h133.21l.093.339,1.6,5.82.88,3.193,1.1,3.989,1.289,4.676Z" transform="translate(-472.251 -538.788)" fill="#e9f3fe"/>
      <path id="Path_60816" data-name="Path 60816" d="M615.481,547.814H482.121l-1.546-6.159H613.733l.145.339Z" transform="translate(-472.251 -536.969)" fill="#afcdfb"/>
      <g id="Group_19424" data-name="Group 19424" transform="translate(11.992 6.115)">
        <path id="Path_60817" data-name="Path 60817" d="M516.271,561.391a.883.883,0,0,1,.878-1.169,1.6,1.6,0,0,1,1.461,1.169.884.884,0,0,1-.878,1.169A1.6,1.6,0,0,1,516.271,561.391Z" transform="translate(-516.235 -559.741)" fill="#e9f3fe"/>
        <ellipse id="Ellipse_251" data-name="Ellipse 251" cx="1.032" cy="1.324" rx="1.032" ry="1.324" transform="translate(3.414 1.548) rotate(-48.551)" fill="#e9f3fe"/>
        <path id="Path_60818" data-name="Path 60818" d="M594.672,561.391a.884.884,0,0,1,.878-1.169,1.6,1.6,0,0,1,1.461,1.169.884.884,0,0,1-.878,1.169A1.6,1.6,0,0,1,594.672,561.391Z" transform="translate(-586.568 -559.741)" fill="#e9f3fe"/>
      </g>
      <g id="Group_19426" data-name="Group 19426" transform="translate(32.622 14.776)">
        <path id="Path_60819" data-name="Path 60819" d="M957.122,871.074H943.758c-.128-1.045-.241-2.149-.342-3.3-.18-2.066-.317-4.288-.418-6.6q-.037-.8-.065-1.613c-.026-.69-.048-1.387-.068-2.088-.033-1.19-.058-2.394-.077-3.605a.007.007,0,0,1,0,0c-.023-1.544-.035-3.1-.038-4.648h0q0-.58,0-1.159h0c0-.363,0-.724,0-1.085.012-3.334.062-6.6.133-9.645.154-6.728.4-12.334.536-15.029h0c.054-1.106.089-1.721.089-1.721h0c.03,0,.233.042.552.119.234.057.531.135.869.239h0c.305.092.642.206,1,.34h0a11.666,11.666,0,0,1,1.861.9l.028.014a5.37,5.37,0,0,1,2.31,2.525c.353.921,1.179,5.872,2.177,12.447.028.188.056.376.085.567.528,3.491,1.1,7.409,1.671,11.409.607,4.239,1.214,8.569,1.771,12.58C956.31,865.156,956.752,868.362,957.122,871.074Z" transform="translate(-919.49 -801.965)" fill="#2b478b"/>
        <path id="Path_60820" data-name="Path 60820" d="M893.58,1192.324H878.024c-.3-1.283-.577-2.521-.826-3.682a40.2,40.2,0,0,1-1.108-7.232,2.109,2.109,0,0,1,.69-1.575,3.4,3.4,0,0,1,1.114-.658,13.255,13.255,0,0,1,5.172-.454c.671.042,1.351.107,2.022.189a58.909,58.909,0,0,1,7.13,1.363s.229.928.5,2.551c.2,1.217.431,2.826.6,4.727.1,1.1.177,2.307.221,3.589C893.55,1191.527,893.564,1191.922,893.58,1192.324Z" transform="translate(-859.69 -1123.215)" fill="#233862"/>
        <path id="Path_60821" data-name="Path 60821" d="M819.476,1188.439l-.155,1.124-.753,5.457-.128.931-.467,3.384H801.761c-.126-2.236-.242-4.415-.264-6.314,0-.211,0-.417,0-.619,0-2.86.251-4.981,1.071-5.516.929-.607,4.012-.44,7.295-.039.327.04.657.082.986.127,1.913.257,3.828.575,5.367.849.8.142,1.5.273,2.039.376C819.018,1188.345,819.476,1188.439,819.476,1188.439Z" transform="translate(-792.771 -1130.226)" fill="#c65447"/>
        <path id="Path_60822" data-name="Path 60822" d="M801.494,816.082s8.906-5.759,15.294-2.814a11.974,11.974,0,0,1,3.01,2.7c2.309,2.544,6.821,42.963,6.821,42.963s-12.808,4.338-25.126-1.472Z" transform="translate(-792.772 -794.657)" fill="#fff"/>
        <path id="Path_60823" data-name="Path 60823" d="M955.055,819.159s9.016,3.7,10.237,6.534,5.19,20.274,5.19,22.319-6.911.457-8.023-2.84c-.924-2.738-4.04-11.15-5.683-16.47Z" transform="translate(-930.532 -800.696)" fill="#2b478b"/>
        <g id="Group_19425" data-name="Group 19425" transform="translate(11.74)">
          <path id="Path_60824" data-name="Path 60824" d="M876.032,776.292a10.145,10.145,0,0,1-6.976-1.421,20.075,20.075,0,0,0,1.487-5.252c.008-.062.014-.122.021-.18a5.374,5.374,0,0,0,.024-1.2h5.089s1.391.636,1.391,1.076c0,.235,0,.46.006.674.01.585.034,1.1.064,1.535a13.944,13.944,0,0,0,.26,2.1S878.02,775.9,876.032,776.292Z" transform="translate(-865.121 -755.013)" fill="#ffb27d"/>
          <path id="Path_60825" data-name="Path 60825" d="M889.161,779.7a7.034,7.034,0,0,1-6.595-1.9c-.071-.077-.108-.123-.108-.123.041-.02.083-.039.128-.057,1.435-.581,4.692-.119,6.51.548C889.107,778.752,889.13,779.262,889.161,779.7Z" transform="translate(-877.144 -763.193)" fill="#e2915a"/>
          <path id="Path_60826" data-name="Path 60826" d="M862.811,678.7c.689,3.708,5.473,3.586,7.54,3.353.582-.065.948-.139.948-.139.656-.175,1.022-1.209,1.192-2.562a21.075,21.075,0,0,0-.541-7.616c-.681-1.513-1.964-3.15-6.782-1.969S861.927,673.947,862.811,678.7Z" transform="translate(-858.649 -666.309)" fill="#ffb27d"/>
          <path id="Path_60827" data-name="Path 60827" d="M844.3,643.076a11.019,11.019,0,0,0-3.323-2.712c-2.724-1.473-6.211.047-6.225.053-3.935,1.73-4.963,4.741-2.877,9.431,2.206,4.959,4.307,4.4,4.307,4.4s-.446-.277-.405-1.823c0-.088.006-.161.01-.224a1.04,1.04,0,0,0-.328-.846c-.489-.436-.727-1.756-.318-2.123.494-.443,1.188.1,1.409.509a.6.6,0,0,0,.864.19c1.224-.774.429-2.323,1.6-3.27s3.546-.152,5.3-.907C846.61,644.9,844.794,643.763,844.3,643.076Z" transform="translate(-830.817 -639.722)" fill="#233862"/>
        </g>
        <path id="Path_60828" data-name="Path 60828" d="M798.907,869.938H779.515c.138-4.021.317-8.823.5-13.683.048-1.26.1-2.526.147-3.781.022-.532.042-1.061.063-1.59.428-10.8.853-20.544.943-21.069.2-1.188.4-2.2.6-3.078.609-2.558,1.366-3.959,3.017-5.166.161-.122,1.481-.787,2.645-1.367.95-.472,1.8-.884,1.821-.9h0a1.867,1.867,0,0,1,.628.758,12.669,12.669,0,0,1,.7,1.543,83.188,83.188,0,0,1,2.508,8.364.034.034,0,0,1,0,.008.009.009,0,0,1,0,0h0c.429,1.68.736,2.988.823,3.364.149.634.344,1.86.576,3.521v0c.313,2.265.687,5.338,1.083,8.826h0q.061.538.122,1.086.07.627.142,1.268h0c.015.137.03.275.044.412h0c.153,1.381.306,2.805.459,4.255a.006.006,0,0,0,0,0c.13,1.195,1.942,2.06,2.068,3.277.01.088.019.268.031.517.023.515.051,1.331.085,2.275.014.42.029.866.046,1.322.071,2.024.158,4.241.257,5.308,0,.05.009.114.013.192.012.213.021.526.029.92C798.9,867.379,798.9,868.575,798.907,869.938Z" transform="translate(-773.054 -800.828)" fill="#2b478b"/>
        <path id="Path_60829" data-name="Path 60829" d="M795.433,963.717c-.005.025-.309,10.916,7.884,12.239s2.749,1.673,2.749,1.673-15.415-.655-15.669-1.062S795.433,963.717,795.433,963.717Z" transform="translate(-782.808 -930.378)" fill="#233862"/>
        <path id="Path_60830" data-name="Path 60830" d="M780.576,1108.871s-.154.108-.449.3l-.015.009a38.478,38.478,0,0,1-10.361,4.431q-.85.23-1.756.434c.048-1.261.1-2.525.146-3.781a15.889,15.889,0,0,1-2.03-.281c.021-.167.044-.332.065-.5.687-.281,1.37-.553,2.029-.811.536-.21,1.055-.409,1.547-.594,2.219-.843,3.863-1.414,3.863-1.414l6.567,2.081Z" transform="translate(-761.029 -1058.618)" fill="#233862"/>
        <path id="Path_60831" data-name="Path 60831" d="M738.011,850.9s-.844.211-2.187.482a.035.035,0,0,0-.014,0,53.833,53.833,0,0,1-10.362,1.158c-.549-.006-1.088-.027-1.61-.068a15.821,15.821,0,0,1-2.03-.281,6.315,6.315,0,0,1-3.243-1.532c-5.534-5.636,3.02-25.864,4.818-27.833,2.1-2.3,5.931-3.1,8.047-3.381l.255-.033c.744-.088,1.221-.107,1.248-.108h0s-.166.533-.444,1.438c-.108.35-.233.756-.371,1.209-1.3,4.256-3.807,12.621-4.912,17.338a11.961,11.961,0,0,0-.523,3.333c.432,1.611,4.9,2.44,7.735,2.806,1.182.153,2.078.225,2.279.24a.279.279,0,0,1,.042,0l.164.672.392,1.611.386,1.583Z" transform="translate(-716.727 -800.825)" fill="#2b478b"/>
        <path id="Path_60832" data-name="Path 60832" d="M907.882,1007.1l-19-.8,3.856-23.683,19,.8Z" transform="translate(-871.164 -947.333)" fill="#f99746"/>
        <path id="Path_60833" data-name="Path 60833" d="M901.995,1075.237s3.7-.258,3.885.6c.433,2.01-3.18,3.661-4.351,3.548S901.143,1075.1,901.995,1075.237Z" transform="translate(-881.982 -1030.39)" fill="#ffb27d"/>
        <path id="Path_60834" data-name="Path 60834" d="M1065.41,1031.916s-3.54-1.107-3.919-.311c-.886,1.856,2.247,4.3,3.412,4.458S1066.27,1031.983,1065.41,1031.916Z" transform="translate(-1025.877 -991.022)" fill="#ffb27d"/>
        <path id="Path_60835" data-name="Path 60835" d="M857.6,807.745a6.906,6.906,0,0,0-2.336,1.861s5.817,10.1,5.791,10.006S859.084,809.039,857.6,807.745Z" transform="translate(-841.004 -790.456)" fill="#233862"/>
        <path id="Path_60836" data-name="Path 60836" d="M948.381,809.129a4.437,4.437,0,0,1,1.717,1.756l.691,8.818s-1.476-6.471-2.228-9.4A4.956,4.956,0,0,1,948.381,809.129Z" transform="translate(-924.544 -791.697)" fill="#233862"/>
        <path id="Path_60837" data-name="Path 60837" d="M987.57,980.078a.863.863,0,0,1,1.015-.581c.865.077,5.725.316,5.725.316s.937-.016.85.585Z" transform="translate(-959.701 -944.53)" fill="#c65447"/>
        <path id="Path_60838" data-name="Path 60838" d="M933.395,763.681a2.028,2.028,0,0,0,1.648.4c.6-.106.941-.891.941-.891A4.558,4.558,0,0,0,933.395,763.681Z" transform="translate(-911.1 -750.457)" fill="#fff"/>
      </g>
      <g id="Group_19443" data-name="Group 19443" transform="translate(74.633 17.943)">
        <g id="Group_19430" data-name="Group 19430" transform="translate(51.744)">
          <path id="Path_60839" data-name="Path 60839" d="M1646.458,687.925l-14.038.052-4.552-17.427,14.037-.052Z" transform="translate(-1627.869 -670.498)" fill="#fff"/>
          <g id="Group_19429" data-name="Group 19429" transform="translate(3.862 2.032)">
            <path id="Path_60840" data-name="Path 60840" d="M1678.551,690.5l-5.886.022-.067-.258,5.886-.022Z" transform="translate(-1671.857 -690.246)" fill="#adcbf9"/>
            <path id="Path_60841" data-name="Path 60841" d="M1674.573,697.466l-7.39.027-.067-.258,7.389-.027Z" transform="translate(-1666.939 -696.492)" fill="#adcbf9"/>
            <g id="Group_19427" data-name="Group 19427" transform="translate(0 4.263)">
              <path id="Path_60842" data-name="Path 60842" d="M1675.063,731.934l-9.6.035-.067-.258,9.6-.036Z" transform="translate(-1665.397 -731.676)" fill="#adcbf9"/>
              <path id="Path_60843" data-name="Path 60843" d="M1677.219,740.192l-9.6.035-.067-.258,9.6-.035Z" transform="translate(-1667.332 -739.085)" fill="#adcbf9"/>
              <path id="Path_60844" data-name="Path 60844" d="M1679.377,748.45l-9.6.035-.067-.258,9.6-.035Z" transform="translate(-1669.267 -746.493)" fill="#adcbf9"/>
              <path id="Path_60845" data-name="Path 60845" d="M1681.534,756.708l-9.6.035-.067-.258,9.6-.035Z" transform="translate(-1671.203 -753.901)" fill="#adcbf9"/>
              <path id="Path_60846" data-name="Path 60846" d="M1683.692,764.966l-9.6.036-.068-.258,9.6-.035Z" transform="translate(-1673.138 -761.309)" fill="#adcbf9"/>
            </g>
            <g id="Group_19428" data-name="Group 19428" transform="translate(1.428 9.73)">
              <path id="Path_60847" data-name="Path 60847" d="M1688.94,785.061l-9.6.036-.067-.258,9.6-.035Z" transform="translate(-1679.274 -784.803)" fill="#adcbf9"/>
              <path id="Path_60848" data-name="Path 60848" d="M1691.1,793.319l-9.6.035-.067-.258,9.6-.036Z" transform="translate(-1681.209 -792.212)" fill="#adcbf9"/>
              <path id="Path_60849" data-name="Path 60849" d="M1693.254,801.577l-9.6.036-.068-.258,9.6-.036Z" transform="translate(-1683.144 -799.619)" fill="#adcbf9"/>
              <path id="Path_60850" data-name="Path 60850" d="M1695.41,809.835l-9.6.035-.067-.258,9.6-.035Z" transform="translate(-1685.079 -807.028)" fill="#adcbf9"/>
              <path id="Path_60851" data-name="Path 60851" d="M1697.568,818.093l-9.6.035-.067-.258,9.6-.035Z" transform="translate(-1687.015 -814.435)" fill="#adcbf9"/>
            </g>
          </g>
        </g>
        <g id="Group_19434" data-name="Group 19434" transform="translate(57.4 21.655)">
          <path id="Path_60852" data-name="Path 60852" d="M1701.431,898.38l-14.038.052L1682.84,881l14.037-.052Z" transform="translate(-1682.84 -880.953)" fill="#fff"/>
          <g id="Group_19433" data-name="Group 19433" transform="translate(3.862 2.032)">
            <path id="Path_60853" data-name="Path 60853" d="M1733.523,900.959l-5.886.022-.067-.258,5.886-.022Z" transform="translate(-1726.83 -900.701)" fill="#adcbf9"/>
            <path id="Path_60854" data-name="Path 60854" d="M1729.545,907.921l-7.39.027-.068-.258,7.39-.027Z" transform="translate(-1721.91 -906.947)" fill="#adcbf9"/>
            <g id="Group_19431" data-name="Group 19431" transform="translate(0 4.263)">
              <path id="Path_60855" data-name="Path 60855" d="M1730.035,942.389l-9.6.036-.068-.258,9.6-.035Z" transform="translate(-1720.369 -942.131)" fill="#adcbf9"/>
              <path id="Path_60856" data-name="Path 60856" d="M1732.191,950.647l-9.6.035-.067-.258,9.6-.035Z" transform="translate(-1722.303 -949.54)" fill="#adcbf9"/>
              <path id="Path_60857" data-name="Path 60857" d="M1734.349,958.9l-9.6.036-.068-.258,9.6-.036Z" transform="translate(-1724.239 -956.947)" fill="#adcbf9"/>
              <path id="Path_60858" data-name="Path 60858" d="M1736.505,967.163l-9.6.035-.067-.258,9.6-.035Z" transform="translate(-1726.174 -964.356)" fill="#adcbf9"/>
              <path id="Path_60859" data-name="Path 60859" d="M1738.663,975.421l-9.6.035L1729,975.2l9.6-.035Z" transform="translate(-1728.109 -971.763)" fill="#adcbf9"/>
            </g>
            <g id="Group_19432" data-name="Group 19432" transform="translate(1.428 9.73)">
              <path id="Path_60860" data-name="Path 60860" d="M1743.912,995.516l-9.6.035-.067-.258,9.6-.036Z" transform="translate(-1734.246 -995.258)" fill="#adcbf9"/>
              <path id="Path_60861" data-name="Path 60861" d="M1746.068,1003.774l-9.6.036-.068-.258,9.6-.035Z" transform="translate(-1736.18 -1002.667)" fill="#adcbf9"/>
              <path id="Path_60862" data-name="Path 60862" d="M1748.225,1012.032l-9.6.036-.067-.258,9.6-.035Z" transform="translate(-1738.116 -1010.075)" fill="#adcbf9"/>
              <path id="Path_60863" data-name="Path 60863" d="M1750.382,1020.29l-9.6.036-.067-.258,9.6-.035Z" transform="translate(-1740.051 -1017.483)" fill="#adcbf9"/>
              <path id="Path_60864" data-name="Path 60864" d="M1752.54,1028.547l-9.6.036-.068-.258,9.6-.035Z" transform="translate(-1741.986 -1024.89)" fill="#adcbf9"/>
            </g>
          </g>
        </g>
        <g id="Group_19438" data-name="Group 19438" transform="translate(63.095 43.456)">
          <path id="Path_60865" data-name="Path 60865" d="M1756.771,1110.25l-14.037.052-4.553-17.427,14.038-.052Z" transform="translate(-1738.181 -1092.823)" fill="#fff"/>
          <g id="Group_19437" data-name="Group 19437" transform="translate(3.862 2.032)">
            <path id="Path_60866" data-name="Path 60866" d="M1788.864,1112.829l-5.886.022-.068-.258,5.886-.021Z" transform="translate(-1782.17 -1112.571)" fill="#adcbf9"/>
            <path id="Path_60867" data-name="Path 60867" d="M1784.886,1119.791l-7.389.027-.068-.258,7.39-.028Z" transform="translate(-1777.252 -1118.815)" fill="#adcbf9"/>
            <g id="Group_19435" data-name="Group 19435" transform="translate(0 4.263)">
              <path id="Path_60868" data-name="Path 60868" d="M1785.376,1154.26l-9.6.036-.068-.258,9.6-.036Z" transform="translate(-1775.709 -1154.002)" fill="#adcbf9"/>
              <path id="Path_60869" data-name="Path 60869" d="M1787.533,1162.518l-9.6.035-.067-.258,9.6-.036Z" transform="translate(-1777.645 -1161.411)" fill="#adcbf9"/>
              <path id="Path_60870" data-name="Path 60870" d="M1789.69,1170.775l-9.6.036-.067-.258,9.6-.036Z" transform="translate(-1779.581 -1168.819)" fill="#adcbf9"/>
              <path id="Path_60871" data-name="Path 60871" d="M1791.847,1179.033l-9.6.036-.067-.258,9.6-.035Z" transform="translate(-1781.516 -1176.225)" fill="#adcbf9"/>
              <path id="Path_60872" data-name="Path 60872" d="M1794,1187.291l-9.6.035-.068-.258,9.6-.035Z" transform="translate(-1783.45 -1183.634)" fill="#adcbf9"/>
            </g>
            <g id="Group_19436" data-name="Group 19436" transform="translate(1.428 9.73)">
              <path id="Path_60873" data-name="Path 60873" d="M1799.253,1207.386l-9.6.036-.068-.258,9.6-.035Z" transform="translate(-1789.586 -1207.129)" fill="#adcbf9"/>
              <path id="Path_60874" data-name="Path 60874" d="M1801.41,1215.644l-9.6.036-.067-.258,9.6-.035Z" transform="translate(-1791.522 -1214.538)" fill="#adcbf9"/>
              <path id="Path_60875" data-name="Path 60875" d="M1803.567,1223.9l-9.6.036-.067-.258,9.6-.035Z" transform="translate(-1793.457 -1221.946)" fill="#adcbf9"/>
              <path id="Path_60876" data-name="Path 60876" d="M1805.724,1232.159l-9.6.036-.068-.258,9.6-.036Z" transform="translate(-1795.393 -1229.351)" fill="#adcbf9"/>
              <path id="Path_60877" data-name="Path 60877" d="M1807.88,1240.417l-9.6.036-.067-.258,9.6-.035Z" transform="translate(-1797.327 -1236.76)" fill="#adcbf9"/>
            </g>
          </g>
        </g>
        <g id="Group_19442" data-name="Group 19442" transform="translate(0 0.078)">
          <g id="Group_19441" data-name="Group 19441">
            <path id="Path_60878" data-name="Path 60878" d="M1188.229,732.205l-49.1.181-14.13-54.1,6.4-6.887,40.909-.151Z" transform="translate(-1125.002 -671.252)" fill="#fff"/>
            <path id="Path_60879" data-name="Path 60879" d="M1300.721,753.488l-17.3.064-.2-.758,17.3-.064Z" transform="translate(-1266.938 -744.346)" fill="#adcbf9"/>
            <path id="Path_60880" data-name="Path 60880" d="M1289.028,773.955l-21.724.08-.2-.758,21.723-.08Z" transform="translate(-1252.484 -762.707)" fill="#adcbf9"/>
            <g id="Group_19439" data-name="Group 19439" transform="translate(14.102 20.916)">
              <path id="Path_60881" data-name="Path 60881" d="M1290.465,875.282l-28.217.1-.2-.758,28.217-.1Z" transform="translate(-1262.049 -874.524)" fill="#adcbf9"/>
              <path id="Path_60882" data-name="Path 60882" d="M1296.806,899.558l-28.217.1-.2-.758,28.218-.1Z" transform="translate(-1267.738 -896.302)" fill="#adcbf9"/>
              <path id="Path_60883" data-name="Path 60883" d="M1303.147,923.834l-28.217.1-.2-.758,28.218-.1Z" transform="translate(-1273.425 -918.08)" fill="#adcbf9"/>
              <path id="Path_60884" data-name="Path 60884" d="M1309.489,948.11l-28.218.1-.2-.758,28.217-.1Z" transform="translate(-1279.117 -939.858)" fill="#adcbf9"/>
              <path id="Path_60885" data-name="Path 60885" d="M1315.83,972.386l-28.218.1-.2-.758,28.217-.1Z" transform="translate(-1284.805 -961.635)" fill="#adcbf9"/>
            </g>
            <g id="Group_19440" data-name="Group 19440" transform="translate(18.3 36.987)">
              <path id="Path_60886" data-name="Path 60886" d="M1331.26,1031.461l-28.217.1-.2-.758,28.217-.1Z" transform="translate(-1302.844 -1030.703)" fill="#adcbf9"/>
              <path id="Path_60887" data-name="Path 60887" d="M1337.6,1055.738l-28.218.1-.2-.758,28.217-.1Z" transform="translate(-1308.533 -1052.482)" fill="#adcbf9"/>
              <path id="Path_60888" data-name="Path 60888" d="M1343.942,1080.013l-28.218.1-.2-.758,28.218-.1Z" transform="translate(-1314.22 -1074.26)" fill="#adcbf9"/>
              <path id="Path_60889" data-name="Path 60889" d="M1350.282,1104.289l-28.217.1-.2-.759,28.218-.1Z" transform="translate(-1319.911 -1096.036)" fill="#adcbf9"/>
              <path id="Path_60890" data-name="Path 60890" d="M1356.624,1128.565l-28.218.1-.2-.759,28.217-.1Z" transform="translate(-1325.6 -1117.815)" fill="#adcbf9"/>
            </g>
          </g>
          <path id="Path_60891" data-name="Path 60891" d="M1125,679.607l8.187-.03-1.791-6.857Z" transform="translate(-1125.002 -672.57)" fill="#adcbf9"/>
        </g>
      </g>
    </g>
    <g id="Group_19455" data-name="Group 19455" transform="translate(346.805 376.881)">
      <g id="Group_19446" data-name="Group 19446" transform="translate(0 16.103)">
        <g id="Group_19445" data-name="Group 19445">
          <path id="Rectangle_3442" data-name="Rectangle 3442" d="M0,0H38.763a6.979,6.979,0,0,1,6.979,6.979v0A7.137,7.137,0,0,1,38.6,14.117H0a0,0,0,0,1,0,0V0A0,0,0,0,1,0,0Z" transform="translate(2.122 0)" fill="#fcecdb"/>
          <path id="Path_60892" data-name="Path 60892" d="M1947.154,1544.545v2.124a6.183,6.183,0,0,1-6.186,6.184h-74.9a.9.9,0,0,1-.9-.9v-.318a.9.9,0,0,1,.9-.9h45.656a5.8,5.8,0,0,0,.641-.963,5.74,5.74,0,0,0,.669-2.7v-2.7a5.619,5.619,0,0,0-1.243-3.532h-45.723a.9.9,0,0,1-.9-.9v-.317a.9.9,0,0,1,.9-.9h75.274a5.8,5.8,0,0,1,5.808,5.808Z" transform="translate(-1865.175 -1538.737)" fill="#699dee"/>
          <path id="Path_60893" data-name="Path 60893" d="M1946.93,1542.945h-34.077a5.638,5.638,0,0,0-1.059-2.1h-45.723a.9.9,0,0,1-.9-.9v-.317a.9.9,0,0,1,.9-.9h75.274A5.81,5.81,0,0,1,1946.93,1542.945Z" transform="translate(-1865.175 -1538.737)" fill="#548ee2"/>
        </g>
        <path id="Path_60894" data-name="Path 60894" d="M1885.8,1607.334l5.546.237-5.546.143Z" transform="translate(-1883.676 -1600.275)" fill="#f4d2b8"/>
        <path id="Path_60895" data-name="Path 60895" d="M1885.8,1628.859l13.193.237-13.193.143Z" transform="translate(-1883.676 -1619.586)" fill="#f4d2b8"/>
      </g>
      <g id="Group_19450" data-name="Group 19450" transform="translate(5.991 30.19)">
        <g id="Group_19448" data-name="Group 19448" transform="translate(0 0)">
          <g id="Group_19447" data-name="Group 19447">
            <path id="Rectangle_3443" data-name="Rectangle 3443" d="M0,0H42.549a5.663,5.663,0,0,1,5.663,5.663v0a5.317,5.317,0,0,1-5.317,5.317H0a0,0,0,0,1,0,0V0A0,0,0,0,1,0,0Z" transform="translate(48.211 10.98) rotate(-180)" fill="#2b478b"/>
            <path id="Rectangle_3444" data-name="Rectangle 3444" d="M0,0H48.4a5.552,5.552,0,0,1,5.552,5.552v0a5.429,5.429,0,0,1-5.429,5.429H0a0,0,0,0,1,0,0V0A0,0,0,0,1,0,0Z" transform="translate(94.193 10.98) rotate(180)" fill="#fcecdb"/>
            <path id="Path_60896" data-name="Path 60896" d="M2275.885,1768.033h58.868a.821.821,0,0,0,.821-.821h0a.821.821,0,0,0-.821-.822h-58.868a.821.821,0,0,0-.821.822h0A.821.821,0,0,0,2275.885,1768.033Z" transform="translate(-2238.879 -1757.053)" fill="#2b478b"/>
            <path id="Path_60897" data-name="Path 60897" d="M2275.885,1677.282h58.868a.821.821,0,0,0,.821-.821h0a.821.821,0,0,0-.821-.821h-58.868a.821.821,0,0,0-.821.821h0A.821.821,0,0,0,2275.885,1677.282Z" transform="translate(-2238.879 -1675.64)" fill="#2b478b"/>
          </g>
          <path id="Path_60898" data-name="Path 60898" d="M2781.776,1728.995l-6.54.185,6.54.111Z" transform="translate(-2687.583 -1723.504)" fill="#f4d2b8"/>
          <path id="Path_60899" data-name="Path 60899" d="M2703.131,1704.437l-15.562.185,15.562.111Z" transform="translate(-2608.936 -1701.474)" fill="#f4d2b8"/>
        </g>
        <g id="Group_19449" data-name="Group 19449" transform="translate(78.791 3.111)">
          <path id="Path_60900" data-name="Path 60900" d="M2689.125,1705.874a2.562,2.562,0,0,1,.887,1.247,1.7,1.7,0,0,1,.069.434c.037,1.03,0,3.362,0,3.362l1.97-1.166,1.964,1.166v-3.161a2.506,2.506,0,0,0-.482-1.559.742.742,0,0,0-.543-.323Z" transform="translate(-2689.125 -1705.874)" fill="#699dee"/>
          <path id="Path_60901" data-name="Path 60901" d="M2689.125,1705.874a2.562,2.562,0,0,1,.887,1.247l3.946.046s-.155-1.11-.969-1.293Z" transform="translate(-2689.125 -1705.874)" fill="#568cdb"/>
        </g>
      </g>
      <g id="Group_19454" data-name="Group 19454" transform="translate(4.178 0)">
        <g id="Group_19452" data-name="Group 19452" transform="translate(0 0)">
          <g id="Group_19451" data-name="Group 19451">
            <path id="Rectangle_3445" data-name="Rectangle 3445" d="M0,0H41.762a8.157,8.157,0,0,1,8.157,8.157v0a7.976,7.976,0,0,1-7.976,7.976H0a0,0,0,0,1,0,0V0A0,0,0,0,1,0,0Z" transform="translate(86.102 16.132) rotate(180)" fill="#fcecdb"/>
            <path id="Path_60902" data-name="Path 60902" d="M1942.987,1388.506v3.472a4.014,4.014,0,0,0,2.037,3.458,4.06,4.06,0,0,0,2.01.53h47.21a1,1,0,0,1,1,1v.41a1,1,0,0,1-1,1h-81.556a6.905,6.905,0,0,1-6.907-6.907v-2.739a6.482,6.482,0,0,1,6.485-6.486h81.978a1,1,0,0,1,1,1v.409a1,1,0,0,1-1,1h-47.354a3.908,3.908,0,0,0-2.871,1.253A3.836,3.836,0,0,0,1942.987,1388.506Z" transform="translate(-1905.781 -1382.247)" fill="#b5453c"/>
          </g>
          <path id="Path_60903" data-name="Path 60903" d="M2689.792,1460.636l-6.052.271,6.052.163Z" transform="translate(-2603.689 -1452.571)" fill="#f4d2b8"/>
          <path id="Path_60904" data-name="Path 60904" d="M2617.026,1424.556l-14.4.271,14.4.163Z" transform="translate(-2530.924 -1420.202)" fill="#f4d2b8"/>
        </g>
        <g id="Group_19453" data-name="Group 19453" transform="translate(71.852 4.571)">
          <path id="Path_60905" data-name="Path 60905" d="M2604.069,1426.667a3.018,3.018,0,0,1,1.264,1.352,1.528,1.528,0,0,1,.1.471c.052,1.118,0,3.646,0,3.646l2.8-1.265,2.8,1.265v-3.427a2.306,2.306,0,0,0-.685-1.691,1.162,1.162,0,0,0-.776-.351Z" transform="translate(-2604.069 -1426.667)" fill="#f99746"/>
          <path id="Path_60906" data-name="Path 60906" d="M2604.069,1426.667a3.018,3.018,0,0,1,1.264,1.352l5.623.051a1.8,1.8,0,0,0-1.381-1.4Z" transform="translate(-2604.069 -1426.667)" fill="#ed7d2b"/>
        </g>
      </g>
    </g>
    <g id="Group_19460" data-name="Group 19460" transform="translate(356.098 309.806)">
      <g id="Group_19459" data-name="Group 19459" transform="translate(0 0)">
        <path id="Path_60907" data-name="Path 60907" d="M2326.342,1317.929a16.158,16.158,0,0,0,5.618,6h13.02S2324.444,1314.625,2326.342,1317.929Z" transform="translate(-2288.07 -1256.836)" fill="#233862"/>
        <g id="Group_19456" data-name="Group 19456">
          <path id="Path_60908" data-name="Path 60908" d="M2329.952,1555.6a1.2,1.2,0,0,1,.215,1.288.01.01,0,0,1,0,.006,8,8,0,0,1-2.529,2.773c-.152.123-.288.235-.4.338-.032.027-.062.054-.091.082s-.047.043-.07.063c-1.112,1.024-.694,1.259-2.69,3.338-2.276,2.369-3.844,2.412-4.29,2.2-.377-.184.39-1.44,1.239-2.852.041-.068.081-.137.124-.206.113-.188.225-.378.338-.567.995-1.7.74-2.5.5-5.026-.191-2.055-3.2-11.481-3.2-11.481l4.361-.752s1.314,7.506,2.762,8.662c.775.616,1.64.624,2.385,1.081.052.032.1.064.155.1A5.733,5.733,0,0,1,2329.952,1555.6Z" transform="translate(-2281.68 -1461.002)" fill="#ffb27d"/>
          <path id="Path_60909" data-name="Path 60909" d="M2337.755,1640.541a1.208,1.208,0,0,1,.214,1.288.009.009,0,0,1,0,.006,9.268,9.268,0,0,1-2.532,2.765c-.151.124-.284.239-.4.347l-.091.082c-.024.021-.047.043-.071.063-1.111,1.024-.692,1.26-2.688,3.338-2.277,2.368-3.845,2.411-4.291,2.2-.376-.184.389-1.441,1.239-2.852a9.708,9.708,0,0,0,4.057-2.99c1.371-1.75,2.286-4,3.219-5.3.052.032.105.065.155.1A5.769,5.769,0,0,1,2337.755,1640.541Z" transform="translate(-2289.483 -1545.941)" fill="#233862"/>
          <path id="Path_60910" data-name="Path 60910" d="M1968.581,1541.3c-.269,1.347-2.189,1.122-4.333.6s-1.635.1-4.687-.24-3.977-1.475-4.07-1.929c-.083-.4,1.425-.545,3.042-.731.2-.023.408-.048.612-.073,1.826-.229,3.164-1.408,4.823-2.375,1.572-.917,3.917-4.652,3.917-4.652l4.186.332s-2.2,3.336-3.046,4.786a5.054,5.054,0,0,0-.411,2.852A5.347,5.347,0,0,1,1968.581,1541.3Z" transform="translate(-1955.488 -1449.427)" fill="#ffb27d"/>
          <path id="Path_60911" data-name="Path 60911" d="M1964.248,1603.807c-2.145-.524-1.635.1-4.687-.239s-3.977-1.476-4.07-1.93c-.083-.4,1.425-.544,3.042-.731l.015.031a8.6,8.6,0,0,0,4.372,1.359c2.07.051,4.264-.543,5.694-.519a5.343,5.343,0,0,1-.032,1.432C1968.312,1604.556,1966.393,1604.331,1964.248,1603.807Z" transform="translate(-1955.488 -1511.333)" fill="#233862"/>
          <path id="Path_60912" data-name="Path 60912" d="M2238.629,1304.666l3.913,10.53,5.109,13.748a8.26,8.26,0,0,0,2.714-.248,11.719,11.719,0,0,0,2.625-1.277s-1.418-14.762-4.064-23.235a15.109,15.109,0,0,0-2.277-4.925C2242.546,1294.41,2238.629,1304.666,2238.629,1304.666Z" transform="translate(-2209.493 -1239.554)" fill="#233862"/>
          <path id="Path_60913" data-name="Path 60913" d="M2075.561,1182.323c2.563-.827,9.875.235,17.22,1.673l1.538-2.536,15.864-1.239s5.235,11.609,2.369,19.006a2.683,2.683,0,0,1-2.685,1.808h-.232s-9.442-.005-12.508-.005c-7.889,0-16.7-5.424-17.836-5.651-1.865-.373-2.611,3.357-4.476,7.273s-17.53,17.343-17.53,17.343a13.791,13.791,0,0,1-3.4-.349,3.352,3.352,0,0,1-1.461-.922S2069.779,1184.188,2075.561,1182.323Z" transform="translate(-2042.449 -1133.934)" fill="#2b478b"/>
          <path id="Path_60914" data-name="Path 60914" d="M2417.1,756.07c5.649,3.11,17.109,9.559,17.17,9.517,0,0,4.212,1.587,6.6,0,3.984-2.645,6.118-9.764-1.166-15.891-3.632-3.055-6.213-3.8-6.6-8.678-.213-2.647-3.832-11.382-9.844-10.574a16.713,16.713,0,0,0-5.625,1.279C2412.448,734.443,2408.627,754.866,2417.1,756.07Z" transform="translate(-2365.129 -730.392)" fill="#233862"/>
          <path id="Path_60915" data-name="Path 60915" d="M2500.228,876.766c-.025.016,2.78.974,4.655.143,1.764-.78,3.1-3.682,3.075-3.684-.8-.037-1.684-.739-2.363-5.342l-.341.123-5.746,2.067s.416,1.843.686,3.6C2500.421,875.146,2500.542,876.558,2500.228,876.766Z" transform="translate(-2443.531 -853.736)" fill="#ffb27d"/>
          <path id="Path_60916" data-name="Path 60916" d="M2499.508,871.143s.416,1.843.686,3.6c3.3-.594,4.594-3.882,5.06-5.666Z" transform="translate(-2443.531 -854.806)" fill="#ed975d"/>
          <path id="Path_60917" data-name="Path 60917" d="M2456.006,786.4s7.862-1.055,7.13-5.941-.211-8.312-5.262-7.844-5.743,2.477-5.9,4.167S2453.942,786.546,2456.006,786.4Z" transform="translate(-2400.884 -768.23)" fill="#ffb27d"/>
          <path id="Path_60918" data-name="Path 60918" d="M2454.83,770.337s5.032,4.337,8.455,4.686,4.718-.749,4.718-.749a13.379,13.379,0,0,1-3.231-4.379,2.408,2.408,0,0,0-1.985-1.419C2460.344,768.266,2455.711,768.17,2454.83,770.337Z" transform="translate(-2403.446 -764.466)" fill="#233862"/>
          <path id="Path_60919" data-name="Path 60919" d="M2449.965,775.486a12.38,12.38,0,0,0-2.213,2.835,9.511,9.511,0,0,0-.258,5.058s-2.623-5.1-1.138-7.578C2447.931,773.173,2449.965,775.486,2449.965,775.486Z" transform="translate(-2395.439 -770.002)" fill="#233862"/>
          <path id="Path_60920" data-name="Path 60920" d="M2442.166,933.308c.237,15.912.065,12.587,1.806,14.1a6.682,6.682,0,0,0,3.15.683c4.879.324,13.457-.48,13.783-1.382,1.125-3.12.33-4.089,1.27-8.866.1-.508.219-1.058.362-1.657.782-3.281,1.544-4.4-1.233-9.668-2.518-4.775-5.135-8.65-5.371-8.51-6.646,3.945-7.181.629-7.181.629S2442.05,925.546,2442.166,933.308Z" transform="translate(-2392.085 -898.698)" fill="#fff"/>
          <path id="Path_60921" data-name="Path 60921" d="M2276.658,1369.48l5.108,13.747a8.266,8.266,0,0,0,2.714-.247,11.757,11.757,0,0,0,2.624-1.277s-1.418-14.762-4.063-23.236Z" transform="translate(-2243.611 -1293.838)" fill="#2b478b"/>
          <path id="Path_60922" data-name="Path 60922" d="M2391.357,924.142s-6.839,1.16-7.642,4.1-5.528,20.252-5.528,20.252,3.476.625,5.082-.981,5.588-14.9,5.588-14.9Z" transform="translate(-2334.691 -904.205)" fill="#fff"/>
          <path id="Path_60923" data-name="Path 60923" d="M2490.346,1063.264c4.878.324,13.456-.48,13.782-1.382,1.125-3.12.331-4.089,1.269-8.866l-2.353-6.627s.389,7.38-1.786,9.321-8.912,3.747-9.969,5.368A5.918,5.918,0,0,0,2490.346,1063.264Z" transform="translate(-2435.313 -1013.874)" fill="#ebf3ff"/>
          <path id="Path_60924" data-name="Path 60924" d="M2470.369,1173.723s-4.815-1.072-5.591-.645a11.287,11.287,0,0,0-2.913,2.524c-.238.542,1.729-.411,2.368-.583a5.694,5.694,0,0,1,2.045.448,6.789,6.789,0,0,0,3.664.368Z" transform="translate(-2409.745 -1127.436)" fill="#ffb27d"/>
          <path id="Path_60925" data-name="Path 60925" d="M2541.119,918s6.464.4,8.7,3.519c3.15,4.393,9.4,23.115,5.819,25.612-4.033,2.812-18.355.736-18.355.736s-.475-2.228.188-3.305,11.439-2.818,11.936-3.316-6.216-9.7-6.216-11.19S2541.119,918,2541.119,918Z" transform="translate(-2477.27 -898.698)" fill="#fff"/>
          <path id="Path_60926" data-name="Path 60926" d="M2471.659,1186.977a9.315,9.315,0,0,1-1.34,1.456.989.989,0,0,1-.544.117l.68-1.223Z" transform="translate(-2416.856 -1139.995)" fill="#ffb27d"/>
          <path id="Path_60927" data-name="Path 60927" d="M2464.779,1173.956l-2.932,1.424a.52.52,0,0,0,.485.188,7,7,0,0,0,1.273-.349Z" transform="translate(-2409.746 -1128.315)" fill="#ffb27d"/>
        </g>
        <g id="Group_19458" data-name="Group 19458" transform="translate(23.289 33.079)">
          <g id="Group_19457" data-name="Group 19457">
            <path id="Path_60928" data-name="Path 60928" d="M2211.992,1069.215h-23.2l-6.977-17.352h23.16Z" transform="translate(-2181.817 -1051.863)" fill="#f99746"/>
            <path id="Path_60929" data-name="Path 60929" d="M2246.988,1213.928h30.631v.677h-30.358Z" transform="translate(-2240.279 -1197.254)" fill="#ed7d2b"/>
          </g>
          <path id="Path_60930" data-name="Path 60930" d="M2306.146,1126.551a.805.805,0,0,1,.789-1.1,1.582,1.582,0,0,1,1.421,1.1.8.8,0,0,1-.788,1.1A1.584,1.584,0,0,1,2306.146,1126.551Z" transform="translate(-2293.311 -1117.874)" fill="#fff"/>
        </g>
      </g>
    </g>
    <g id="Group_19463" data-name="Group 19463" transform="translate(193.572 360.541)">
      <g id="Group_19461" data-name="Group 19461" transform="translate(0 0.264)">
        <path id="Path_60931" data-name="Path 60931" d="M381.2,1232.265l-.494.342a1.165,1.165,0,0,1-1.619-.294l-2.873-4.145a1.165,1.165,0,0,1,.294-1.619l.708-.491a.228.228,0,0,1,.259.375l-.707.49a.709.709,0,0,0-.179.986l2.873,4.145a.709.709,0,0,0,.986.179l.494-.343a.709.709,0,0,0,.178-.985l-1.907-2.752a.228.228,0,0,1,.374-.26l1.907,2.752A1.166,1.166,0,0,1,381.2,1232.265Z" transform="translate(-376.008 -1226.017)" fill="#afcdfb"/>
      </g>
      <g id="Group_19462" data-name="Group 19462" transform="translate(0.499 0)">
        <path id="Path_60932" data-name="Path 60932" d="M388.7,1234.05l-.886.614a1.884,1.884,0,0,1-2.6-.564l-4.319-6.232a.228.228,0,0,1,.374-.259l4.319,6.232a1.43,1.43,0,0,0,1.965.449l.886-.614a1.43,1.43,0,0,0,.269-2l-4.92-7.1a1.43,1.43,0,0,0-1.965-.45.228.228,0,1,1-.259-.374,1.885,1.885,0,0,1,2.6.565l4.92,7.1A1.885,1.885,0,0,1,388.7,1234.05Z" transform="translate(-380.854 -1223.451)" fill="#afcdfb"/>
      </g>
    </g>
    <g id="Group_19466" data-name="Group 19466" transform="translate(197.028 400.069)">
      <g id="Group_19464" data-name="Group 19464" transform="translate(0.016 2.115)">
        <path id="Path_60933" data-name="Path 60933" d="M420.557,1629.649l.107.878a1.714,1.714,0,0,1-1.493,1.906l-7.366.894a1.714,1.714,0,0,1-1.906-1.493l-.152-1.257a.335.335,0,0,1,.665-.081l.153,1.257a1.043,1.043,0,0,0,1.16.909l7.366-.894a1.043,1.043,0,0,0,.909-1.159l-.106-.878a1.044,1.044,0,0,0-1.16-.909l-4.89.594a.335.335,0,0,1-.081-.665l4.89-.593A1.713,1.713,0,0,1,420.557,1629.649Z" transform="translate(-409.744 -1628.143)" fill="#afcdfb"/>
      </g>
      <g id="Group_19465" data-name="Group 19465" transform="translate(0 0)">
        <path id="Path_60934" data-name="Path 60934" d="M427.9,1609.918l.191,1.574a2.773,2.773,0,0,1-2.517,2.995l-11.074,1.344a.335.335,0,1,1-.081-.665l11.074-1.344a2.1,2.1,0,0,0,1.933-2.249l-.191-1.573a2.1,2.1,0,0,0-2.415-1.721l-12.614,1.531a2.1,2.1,0,0,0-1.933,2.249.335.335,0,1,1-.665.081,2.773,2.773,0,0,1,2.517-2.995l12.614-1.531A2.773,2.773,0,0,1,427.9,1609.918Z" transform="translate(-409.59 -1607.591)" fill="#afcdfb"/>
      </g>
    </g>
    <circle id="Ellipse_252" data-name="Ellipse 252" cx="1.021" cy="1.021" r="1.021" transform="translate(333.165 300.214) rotate(-76.717)" fill="#f99746"/>
    <rect id="Rectangle_3446" data-name="Rectangle 3446" width="298.426" height="0.792" rx="0.396" transform="translate(174.221 417.973)" fill="#2e3552"/>
  </g>
</svg>
