<svg id="Group_19498" data-name="Group 19498" xmlns="http://www.w3.org/2000/svg" width="280" height="185.318" viewBox="0 0 280 185.318">
  <path id="Path_60516" data-name="Path 60516" d="M1812.835,724.626l3.4-3.291c-1.064-5.951-6.647-8.815-10.324-9.205-9.9-1.051-14.947,5.756-17.07,16.673-3.877,19.926,1,103.6,1,103.6.365-2.222,27.254-86.245,26.564-109.33Z" transform="translate(-1645.657 -667.007)" fill="#96d9c9"/>
  <path id="Path_60517" data-name="Path 60517" d="M844.5,1242.19l-.422,3.122-1.01-3.611a14.408,14.408,0,0,0-7.261-.756c-17.469,3.97,12.718,27.994,12.718,27.994a146.151,146.151,0,0,0-18.938-9.864l-.118,3.165-1.192-3.576c-7.24-2.834-13.956-4.144-15.3-.052-1.264,3.852,1.279,7.5,5.655,10.746l5.03.177-2.965,1.243c10.1,6.473,26.821,11.1,32.591,12.156-5.52-.867-19.013-2.623-27.01-.9l1.255,2.088-3.158-1.579c-2.8.9-4.538,2.4-4.35,4.751.358,4.5,19.884,6.121,19.884,6.121l71.331-.662.4.2S867.491,1250.614,844.5,1242.19Z" transform="translate(-812.649 -1118.869)" fill="#3c8f7c"/>
  <path id="Path_60518" data-name="Path 60518" d="M1893.369,952.593c-1.376-6.388-15.345-8.266-33.151-4.764,6.34-2.167,15.051-7.1,19.562-9.352l-3.085-1.964,6.2.288c5.068-2.967,7.6-5.882,5.947-8.519-1.237-1.969-3.95-2.788-7.627-2.779l-1.937,3.466.4-3.418c-9.275.536-11.38-.978-23.892,4.079,7.819-4.059,8.949-5.318,9.462-6.948l-4.235-1.853h4.962c4.011-4.315,10.375-12.852,7.736-16.786-2.178-3.247-11.741,1.26-17.844,3.6l-2.6,5.84.526-4.99c-19.406,8.454-12.828,1.671-12.828,1.671s20.258-41.906,8.324-40.964c-4.712.372-9.778,3.211-14.753,7.761l-.126,4.166-1.481-2.643a106.364,106.364,0,0,0-10.639,12.473c4.645-9.755,8.168-19.338,8.518-26.472l-3.546-.43,3.5-2.434c-.329-3.6-1.757-6.331-4.65-7.772-4.437-2.21-9.094,1.134-13.678,7.78l1.132,6-2.844-3.361c-16.416,26.755-31.426,92.623-31.426,92.623l-1.191,3.573,48.228,2.381S1896.148,965.5,1893.369,952.593Z" transform="translate(-1637.763 -787.639)" fill="#50bfa5"/>
  <g id="Group_19279" data-name="Group 19279" transform="translate(2.341 173.926)">
    <path id="Path_60519" data-name="Path 60519" d="M1105.583,1600.414h-276a.8.8,0,1,1,0-1.6h276a.8.8,0,1,1,0,1.6Z" transform="translate(-828.755 -1598.816)" fill="#2e3552"/>
  </g>
  <path id="Path_60520" data-name="Path 60520" d="M1372.116,1306.323H1259c-4.32,0-7.823-3.178-7.823-7.1v-4.22c0-3.92,3.5-7.1,7.823-7.1h113.112a12.712,12.712,0,0,0-.208,18.2Z" transform="translate(-1187.435 -1159.177)" fill="#86b1f2"/>
  <path id="Path_60521" data-name="Path 60521" d="M1695.842,1302.423h-56.92a7.1,7.1,0,0,0-7.1,7.1h0a7.1,7.1,0,0,0,7.1,7.1h56.925A13.644,13.644,0,0,1,1695.842,1302.423Z" transform="translate(-1512.743 -1171.583)" fill="#fae0b2"/>
  <g id="Group_19280" data-name="Group 19280" transform="translate(76.022 107.682)">
    <path id="Path_60522" data-name="Path 60522" d="M1439.187,1144.027c.248-.426-.129-.918-.7-.918H1348.4c-7.06,0-12.784,4.723-12.784,10.55h0c0,5.826,5.724,10.55,12.784,10.55h90.106c.575,0,.953-.5.7-.923h0A18.745,18.745,0,0,1,1439.187,1144.027Z" transform="translate(-1335.62 -1143.109)" fill="#355389"/>
    <path id="Path_60523" data-name="Path 60523" d="M1640.273,1158.726h-60.44a8.084,8.084,0,0,0-8.084,8.084v.606a8.084,8.084,0,0,0,8.084,8.084H1640.4A18.639,18.639,0,0,1,1640.273,1158.726Z" transform="translate(-1537.425 -1156.456)" fill="#fae0b2"/>
  </g>
  <path id="Path_60524" data-name="Path 60524" d="M1293.911,1018.3h58.134c5.155,0,9.334-4.507,9.334-10.066h0c0-5.559-4.179-10.066-9.334-10.066h-58.134a16.374,16.374,0,0,1,.415,19.56Z" transform="translate(-1223.952 -911.561)" fill="#fae0b2"/>
  <path id="Path_60525" data-name="Path 60525" d="M1351.521,1002.106h0c0-5.559-4.227-10.066-9.442-10.066H1283.76a.507.507,0,0,1-.489-.527h0a.506.506,0,0,1,.489-.516h92.514c5.755,0,10.42,4.974,10.42,11.109h0c0,6.135-4.665,11.109-10.42,11.109H1283.76a.506.506,0,0,1-.489-.517h0a.506.506,0,0,1,.489-.526h58.318C1347.293,1012.172,1351.521,1007.665,1351.521,1002.106Z" transform="translate(-1214.858 -905.428)" fill="#466eb6"/>
  <g id="Group_19281" data-name="Group 19281" transform="translate(132.14 118.405)">
    <path id="Path_60526" data-name="Path 60526" d="M1730.3,1216.878h-6.221c-1.338,0-2.422.415-2.422.927v.083h8.644Z" transform="translate(-1721.654 -1216.878)" fill="#ff4c16"/>
    <path id="Path_60527" data-name="Path 60527" d="M1749.348,1219.2c0-1.283-1.625-2.324-3.629-2.324h-7.984c1.52,0,2.752.789,2.752,1.763l-.038,24.912,4.411-3.2,4.5,3.2Z" transform="translate(-1735.397 -1216.878)" fill="#f47458"/>
  </g>
  <g id="Group_19282" data-name="Group 19282" transform="translate(53.667 147.107)">
    <path id="Path_60528" data-name="Path 60528" d="M1359.358,1414.326H1191.285a9.45,9.45,0,0,0-9.45,9.45v7.949a9.45,9.45,0,0,0,9.45,9.45h168.073l-.088-.091A19.245,19.245,0,0,1,1359.358,1414.326Z" transform="translate(-1181.835 -1414.326)" fill="#b75742"/>
    <path id="Path_60529" data-name="Path 60529" d="M1798.78,1441.667h-89.849a9.45,9.45,0,0,0-9.45,9.45h0a9.45,9.45,0,0,0,9.45,9.45h89.847A19.272,19.272,0,0,1,1798.78,1441.667Z" transform="translate(-1624.233 -1437.693)" fill="#fae0b2"/>
  </g>
  <g id="Group_19283" data-name="Group 19283" transform="translate(173.976 160.581)">
    <path id="Path_60530" data-name="Path 60530" d="M2019.577,1507.014h-7.286a2.837,2.837,0,0,0-2.838,2.837v.254h10.124Z" transform="translate(-2009.453 -1507.014)" fill="#13375b"/>
    <path id="Path_60531" data-name="Path 60531" d="M2031.022,1507.055c1.741,0,4.343,1.473,5.809,3.292l17.282,21.434,10.151-.006-16.437-20.385c-1.934-2.4-5.364-4.342-7.66-4.34Z" transform="translate(-2027.887 -1507.045)" fill="#355389"/>
  </g>
  <g id="Group_19285" data-name="Group 19285" transform="translate(21.079 109.617)">
    <path id="Path_60532" data-name="Path 60532" d="M961.6,1575.847l3.542-.827a24.4,24.4,0,0,0,5.553-.362,8.773,8.773,0,0,1,.386,2.182c.02.254-.344,1.516-.6,1.555-.911.14-2.516-.019-5.362.047,0,0-4.481.529-6.879-.262S961.6,1575.847,961.6,1575.847Z" transform="translate(-957.659 -1513.861)" fill="#b75742"/>
    <path id="Path_60533" data-name="Path 60533" d="M1162.717,1160.444c.2,2.056,1.922,2.781,3.531,4.081,1.08.873.894,3.232.069,4.7-2.09,3.711-.31,4.169,1.375,6.894,4.058,6.564-8.517,8.014-10.009,8.5s-2.5,1.081-3.387.983c-2.661-.294-5.095-4.076-6.446-7.574s1.929-3.682,2.1-5.691-3.67-2.441-2.532-6.235c1.231-4.1,2.968-7.584,5.276-8.832,3.818-2.064,8.46.094,9.516,1.753A3.194,3.194,0,0,1,1162.717,1160.444Z" transform="translate(-1119.649 -1156.426)" fill="#184655"/>
    <path id="Path_60534" data-name="Path 60534" d="M1116.128,1454.246c.33.823,2.15,3.734,2.15,3.734l-25.537.254-.4-5.239c7.011-.057,13.942-3.157,20.4-5.375C1112.909,1448.017,1115.968,1453.847,1116.128,1454.246Z" transform="translate(-1072.765 -1405.291)" fill="#fae0b2"/>
    <path id="Path_60535" data-name="Path 60535" d="M1130.219,1290.113s1.371-9.68,3.577-10.685,14.15.388,15.937,1.48-1.19,12.46-1.647,15.64q-.041.285-.088.57a26.641,26.641,0,0,0,1.3,13.631c-6.535,1.985-8.231,3.076-15.24,2.881l-2.617-15.31S1129.363,1290.909,1130.219,1290.113Z" transform="translate(-1104.958 -1261.251)" fill="#50bfa5"/>
    <path id="Path_60536" data-name="Path 60536" d="M1194.47,1232.91a55.122,55.122,0,0,0,1.02,6.636c.47,1.307-1.261,3.966-4.086,4.7s-.77-2.84-.836-4.222-.34-7.922-.34-7.922Z" transform="translate(-1156.146 -1221.104)" fill="#f7a491"/>
    <path id="Path_60537" data-name="Path 60537" d="M1196.419,1233.522a5.261,5.261,0,0,1-1.291,1.065,3.9,3.9,0,0,1-2.888.573c-.07-1.647-.129-3.056-.129-3.056l4.242.8S1196.377,1233.144,1196.419,1233.522Z" transform="translate(-1158.029 -1221.104)" fill="#f47458"/>
    <path id="Path_60538" data-name="Path 60538" d="M1183.289,1170.215a4.846,4.846,0,0,1,2.649,2.067c.981,1.627,1.525,6.332-1.972,8.393s-6.046-1.124-5.981-4.139S1178.836,1169.523,1183.289,1170.215Z" transform="translate(-1145.955 -1168.143)" fill="#f7a491"/>
    <path id="Path_60539" data-name="Path 60539" d="M1170.673,1196.89c.038.783.438,1.4.893,1.376s.793-.677.754-1.46-.438-1.4-.893-1.375S1170.634,1196.107,1170.673,1196.89Z" transform="translate(-1139.705 -1189.76)" fill="#f7a491"/>
    <path id="Path_60540" data-name="Path 60540" d="M1231.314,1207.237c-.276.775-.077,1.554.445,1.741s1.168-.289,1.445-1.064.077-1.554-.445-1.741S1231.59,1206.463,1231.314,1207.237Z" transform="translate(-1191.427 -1198.908)" fill="#f7a491"/>
    <path id="Path_60541" data-name="Path 60541" d="M1245.02,1291.644a8.246,8.246,0,0,0-3.285,4.049c-1.249,2.981,3,18.192,3.911,19.167a2.25,2.25,0,0,0,3.844-1.255C1249.917,1311.223,1248.475,1292.4,1245.02,1291.644Z" transform="translate(-1200.244 -1271.988)" fill="#3c8f7c"/>
    <path id="Path_60542" data-name="Path 60542" d="M1096.649,1276.81l3.511,21.088-13.669,2.2-4.339-19.727S1093.4,1275.823,1096.649,1276.81Z" transform="translate(-1064.055 -1259.191)" fill="#9bc1f9"/>
    <path id="Path_60543" data-name="Path 60543" d="M1000.389,1279.1a7.358,7.358,0,0,1,4.108-.375c2.558.5,6.625,1.537,8.257,3.291,2.463,2.647,4.742,20.157,4.742,20.157l-10.626-2.382-6.481-20.69Z" transform="translate(-994.177 -1260.829)" fill="#9bc1f9"/>
    <path id="Path_60544" data-name="Path 60544" d="M1090.809,1402.61c-1.786-4.963-22.035-23.027-27.394-21.638l2.878,11.017s6.016,17.935,11.911,20.248a15.651,15.651,0,0,0,11.414-.3A11.151,11.151,0,0,0,1090.809,1402.61Z" transform="translate(-1048.042 -1348.266)" fill="#f7cc7f"/>
    <path id="Path_60545" data-name="Path 60545" d="M1201.694,1330.373c-.252.5,1.358,1.4,1.826,1.745s2.409-.01,2.409-.01S1201.974,1329.812,1201.694,1330.373Z" transform="translate(-1166.196 -1305.011)" fill="#f7a491"/>
    <path id="Path_60546" data-name="Path 60546" d="M1016.887,1480.181s-5.145,10.692-5.162,11.805c-.025,1.6-7.439,1.164-5.828.478.37-.158,1.537-.749,1.627-.826.479-.413,4.749-13.69,4.749-13.69Z" transform="translate(-998.688 -1431.209)" fill="#f48c7f"/>
    <path id="Path_60547" data-name="Path 60547" d="M1031.118,1402.695a3.742,3.742,0,0,0-4.863,1.191c-2.007,2.5-5.856,21.968-5.856,21.968l4.731.463S1036.907,1409.079,1031.118,1402.695Z" transform="translate(-1011.279 -1366.514)" fill="#f7cc7f"/>
    <path id="Path_60548" data-name="Path 60548" d="M988.174,1289.041l6.087,17.746a1.968,1.968,0,0,0,1.575,1.325c5.706.807,8.684,1.218,8.684,1.218s1.113.058,2.294.073l13.063-1.394a2.01,2.01,0,0,0,1.717-2.384l-3.18-17.424a1.958,1.958,0,0,0-2.23-1.619l-12.567,2.112-3.3-.089-9.887-2.214A2,2,0,0,0,988.174,1289.041Z" transform="translate(-983.639 -1267.458)" fill="#f47458"/>
    <path id="Path_60549" data-name="Path 60549" d="M1164.828,1340.081a37.987,37.987,0,0,0,4.7.614,12.548,12.548,0,0,1,2.75.342s3.913,9.2,4.474,10.228c1.676,3.064,6.323,2.7,6.246.147-.061-2.03-8-14.763-10.108-14.7s-8.716-1.314-8.914-.475c-.107.451,6.083.663,5.107,1.046-.607.238-5.451-.306-5.434.264s4.377.624,4.846,1.067-4.64-.542-4.61.426c.015.487,4.5.135,4.992.875C1169.084,1340.223,1164.457,1339.122,1164.828,1340.081Z" transform="translate(-1133.707 -1309.866)" fill="#f7a491"/>
    <g id="Group_19284" data-name="Group 19284" transform="translate(6.725 28.672)">
      <path id="Path_60550" data-name="Path 60550" d="M1004.953,1353.708a.482.482,0,0,0-.662.328.98.98,0,0,0,.138.9c.44.472,3.506.925,3.523.469C1007.964,1355.051,1005.906,1354.12,1004.953,1353.708Z" transform="translate(-1004.198 -1353.667)" fill="#f7a491"/>
      <path id="Path_60551" data-name="Path 60551" d="M1004.133,1361.923s-.308,1.15-.042,1.159,3.584.338,3.732-.056S1004.56,1361.691,1004.133,1361.923Z" transform="translate(-1003.974 -1360.692)" fill="#f7a491"/>
      <path id="Path_60552" data-name="Path 60552" d="M1003.935,1369.305a1.051,1.051,0,0,0,.181.806c.275.3,3.365.1,3.477-.389S1004.044,1368.928,1003.935,1369.305Z" transform="translate(-1003.919 -1366.887)" fill="#f7a491"/>
      <path id="Path_60553" data-name="Path 60553" d="M1007.27,1375.556a1,1,0,0,0,.151.557c.156.167,2.438-.065,2.665-.551S1007.535,1375.052,1007.27,1375.556Z" transform="translate(-1006.783 -1372.059)" fill="#f7a491"/>
    </g>
    <path id="Path_60554" data-name="Path 60554" d="M1008.468,1552.149a67.5,67.5,0,0,1-2.184,6.551c-.716,1.707-.9,3.409-1.375,4.261-1.2,2.154-3.16,2.24-4.717.946s.531-6.753.531-6.753l4.916-6.916Z" transform="translate(-993.517 -1492.991)" fill="#f7a491"/>
    <path id="Path_60555" data-name="Path 60555" d="M1002.262,1603.618c.421-.757.616-2.185,1.156-3.691a4.394,4.394,0,0,1-2.7.582,3.232,3.232,0,0,1-2.642-2.7s-2.622,5.6-1.065,6.889A3.419,3.419,0,0,0,1002.262,1603.618Z" transform="translate(-990.869 -1533.649)" fill="#f47458"/>
    <path id="Path_60556" data-name="Path 60556" d="M1075.669,1301.995l4.025,20.831-2.422-.145-.7-.05-4.2-20.724Z" transform="translate(-1055.691 -1280.758)" fill="#b75742"/>
    <path id="Path_60557" data-name="Path 60557" d="M1049.945,1417.9c1.378,2.535,4.125,2.929,6.6,2.722,2.735-.23,5.745-1.726,6.553-4.865a12.763,12.763,0,0,0-2.264-10.133c-10.19-13.465-10.269-14.792-14.326-16.581-4.38-1.931-20.645,25.856-20.645,25.856l4.467,2.283a117.853,117.853,0,0,0,10.98-10.51,32.258,32.258,0,0,0,1.936-3.564S1049.034,1416.227,1049.945,1417.9Z" transform="translate(-1015.947 -1355.149)" fill="#fae0b2"/>
  </g>
  <g id="Group_19288" data-name="Group 19288" transform="translate(51.085 91.329)">
    <path id="Path_60558" data-name="Path 60558" d="M1168.219,1030.676a4.928,4.928,0,0,0-2.117,8.845,3.279,3.279,0,0,1,1.25,1.914l.616,2.632a1.429,1.429,0,0,0,1.605,1.087l1.631-.247a1.429,1.429,0,0,0,1.212-1.513c-.191-2.712-.457-3.7.439-4.895A4.928,4.928,0,0,0,1168.219,1030.676Z" transform="translate(-1164.077 -1030.618)" fill="#f7cc7f"/>
    <g id="Group_19286" data-name="Group 19286" transform="translate(2.345 4.554)">
      <path id="Path_60559" data-name="Path 60559" d="M1182.948,1069.87h0a.4.4,0,0,1-.448-.338l-.8-5.74-1.344-1.152a.4.4,0,1,1,.516-.6l1.572,1.347.844,6.037A.4.4,0,0,1,1182.948,1069.87Z" transform="translate(-1180.211 -1061.944)" fill="#fae0b2"/>
    </g>
    <g id="Group_19287" data-name="Group 19287" transform="translate(5.651 4.141)">
      <path id="Path_60560" data-name="Path 60560" d="M1204.382,1067.387h0a.4.4,0,0,0,.328-.455l-.93-5.72.944-1.5a.4.4,0,1,0-.671-.423l-1.1,1.752.978,6.016A.4.4,0,0,0,1204.382,1067.387Z" transform="translate(-1202.954 -1059.106)" fill="#fae0b2"/>
    </g>
    <path id="Path_60561" data-name="Path 60561" d="M1186.484,1100.229c.006.022.013.043.018.065l.616,2.632a1.429,1.429,0,0,0,1.605,1.087l1.631-.247a1.429,1.429,0,0,0,1.212-1.513c-.085-1.206-.184-2.071-.19-2.765Z" transform="translate(-1183.227 -1089.477)" fill="#96d9c9"/>
  </g>
  <path id="Path_60562" data-name="Path 60562" d="M1156.886,685.5l-1.706-2.468-3,.007a.412.412,0,0,1-.329-.662l1.82-2.386-.934-2.851a.412.412,0,0,1,.528-.517l2.831.993,2.423-1.769a.412.412,0,0,1,.655.343l-.07,3,2.431,1.758a.412.412,0,0,1-.123.729l-2.874.86-.921,2.856A.412.412,0,0,1,1156.886,685.5Z" transform="translate(-1102.47 -636.024)" fill="#f47458"/>
  <path id="Path_60563" data-name="Path 60563" d="M2251.9,731.455l-1.254-1.813-2.2.005a.3.3,0,0,1-.241-.487l1.337-1.752-.686-2.095a.3.3,0,0,1,.388-.38l2.08.73,1.78-1.3a.3.3,0,0,1,.481.252l-.052,2.2,1.786,1.291a.3.3,0,0,1-.091.536l-2.112.632-.677,2.1A.3.3,0,0,1,2251.9,731.455Z" transform="translate(-2039.47 -677.503)" fill="#9bc1f9"/>
  <path id="Path_60564" data-name="Path 60564" d="M1934.548,571.338l-2.771-.466-1.624,2.362-3.069-.742-.954,3.048-3.508-.686-1.224,2.7-3.483-.108.041-1.318,2.6.081,1.292-2.848,3.372.66.97-3.1,3.387.819,1.586-2.306,2.569.432.724-1.732,1.217.509Z" transform="translate(-1757.247 -544.033)" fill="#f48c7f"/>
  <path id="Path_60565" data-name="Path 60565" d="M1438.3,624.7l-2.029.623-1.363-3.155-3.079.545-1.406-2.194-1.11.712,1.88,2.934,2.918-.516,1.418,3.282,3.053-.937Z" transform="translate(-1339.673 -588.807)" fill="#50bfa5"/>
  <path id="Path_60566" data-name="Path 60566" d="M1062.234,879.17l-3.037,1.848,3.15,14.153a1.829,1.829,0,0,0,2.736,1.165h0a1.829,1.829,0,0,0,.831-1.975l-.77-3.323,3.187-1.939,2.635,2.205a1.829,1.829,0,0,0,2.125.16l.058-.035a1.829,1.829,0,0,0,.221-2.967Zm2.055,8.528-.582-2.6,2.045,1.71Z" transform="translate(-1023.358 -809.856)" fill="#f48c7f"/>
  <path id="Path_60567" data-name="Path 60567" d="M2332.907,919.188a4.508,4.508,0,0,1,2.1-3.217c.82-.561,1.492-1.039,1.674-1.694.314-1.13-.876-1.673-2.061-1.668a1.134,1.134,0,0,1-1.134-1.1h0a1.14,1.14,0,0,1,1.086-1.174,7.387,7.387,0,0,1,2.32.266c2.544.706,3.31,2.434,2.866,4.034a4.972,4.972,0,0,1-2.537,2.783,3.559,3.559,0,0,0-1.748,2.483Zm-1.239,2.52a1.79,1.79,0,1,1,1.228,2.23A1.734,1.734,0,0,1,2331.668,921.708Z" transform="translate(-2110.788 -836.483)" fill="#f7cc7f"/>
  <g id="Group_19291" data-name="Group 19291" transform="translate(132.702 9.092)">
    <path id="Path_60568" data-name="Path 60568" d="M1729.969,464.9a4.482,4.482,0,0,0-3.106,7.666,2.982,2.982,0,0,1,.864,1.891l.2,2.451a1.3,1.3,0,0,0,1.3,1.2h1.5a1.3,1.3,0,0,0,1.3-1.2c.2-2.465.092-3.388,1.06-4.342A4.482,4.482,0,0,0,1729.969,464.9Z" transform="translate(-1725.527 -464.897)" fill="#f7cc7f"/>
    <g id="Group_19289" data-name="Group 19289" transform="translate(2.156 3.849)">
      <path id="Path_60569" data-name="Path 60569" d="M1741.8,498.822h0a.361.361,0,0,1-.357-.365l.059-5.271-1.052-1.218a.361.361,0,0,1,.546-.471l1.231,1.425-.062,5.543A.36.36,0,0,1,1741.8,498.822Z" transform="translate(-1740.362 -491.372)" fill="#fae0b2"/>
    </g>
    <g id="Group_19290" data-name="Group 19290" transform="translate(4.98 4.069)">
      <path id="Path_60570" data-name="Path 60570" d="M1760.208,500.337h0a.361.361,0,0,0,.356-.365l-.058-5.271,1.052-1.219a.361.361,0,0,0-.546-.471l-1.231,1.425.062,5.543A.36.36,0,0,0,1760.208,500.337Z" transform="translate(-1759.786 -492.887)" fill="#fae0b2"/>
    </g>
    <path id="Path_60571" data-name="Path 60571" d="M1740.605,530.221c0,.02.006.041.007.061l.2,2.451a1.3,1.3,0,0,0,1.3,1.2h1.5a1.3,1.3,0,0,0,1.3-1.2c.088-1.1.116-1.887.205-2.512Z" transform="translate(-1738.413 -520.725)" fill="#96d9c9"/>
  </g>
  <path id="Path_60572" data-name="Path 60572" d="M1788.387,418.738l-3.424,5.806,5.806-4.317Z" transform="translate(-1643.622 -416.356)" fill="#fae0b2"/>
  <path id="Path_60573" data-name="Path 60573" d="M1712.745,403.238l3.5,5.962-.6-6.848Z" transform="translate(-1581.901 -402.352)" fill="#fae0b2"/>
  <path id="Path_60574" data-name="Path 60574" d="M1670.187,467.167l5.569,2.19-5.685.341Z" transform="translate(-1545.431 -457.745)" fill="#fae0b2"/>
  <path id="Path_60575" data-name="Path 60575" d="M1789.06,521.151l2.233,2.829,1.637-1.935Z" transform="translate(-1647.122 -503.881)" fill="#fae0b2"/>
  <path id="Path_60576" data-name="Path 60576" d="M1804.422,473.053l5.062-2.084.149,2.233Z" transform="translate(-1660.251 -460.994)" fill="#fae0b2"/>
  <path id="Path_60577" data-name="Path 60577" d="M1685.265,524.224l-4.764,2.233,1.489,1.787Z" transform="translate(-1554.345 -506.508)" fill="#fae0b2"/>
  <path id="Path_60578" data-name="Path 60578" d="M1303.95,731.617a23.27,23.27,0,0,1,3.7.779,7.131,7.131,0,0,1,3.464,1.747,2.809,2.809,0,0,1,.8,2.857,2.917,2.917,0,0,1-2.8,2.067l-.011.037a3.23,3.23,0,0,1,1.594,3.762,3.439,3.439,0,0,1-2.042,2.265c-1.107.46-2.733.434-5.2-.271a22.63,22.63,0,0,1-2.986-1.052Zm1.423,5.545.921.263c1.473.421,2.438.04,2.7-.881.268-.939-.308-1.641-1.578-2a7.948,7.948,0,0,0-1.218-.268Zm-1.574,5.506a9.276,9.276,0,0,0,1.076.347c1.271.363,2.531.205,2.9-1.1.358-1.252-.623-2.07-2.023-2.47l-.958-.274Z" transform="translate(-1229.554 -683.753)" fill="#96d9c9"/>
  <path id="Path_60579" data-name="Path 60579" d="M2086.448,693.593a1.3,1.3,0,0,1-.954,1.551,12.156,12.156,0,0,1-2.4.308c-4.891.165-7.513-2.794-7.649-6.825-.163-4.829,3.189-7.632,7.472-7.776a10.849,10.849,0,0,1,2.2.14,1.3,1.3,0,0,1,1.041,1.56l-.01.045a1.3,1.3,0,0,1-1.486,1,7.2,7.2,0,0,0-1.512-.105c-2.54.086-4.462,1.685-4.356,4.834.1,2.834,1.835,4.562,4.691,4.466a8.426,8.426,0,0,0,1.432-.181,1.3,1.3,0,0,1,1.528.983Z" transform="translate(-1891.872 -640.361)" fill="#f7cc7f"/>
  <path id="Path_60580" data-name="Path 60580" d="M1037.935,1145.544a1.984,1.984,0,0,1,1.244-2.487,1.972,1.972,0,1,1-1.244,2.487Zm-.345-3.067-3.294-7.868a1.234,1.234,0,0,1,.72-1.637l.8-.289a1.233,1.233,0,0,1,1.6.8l2.5,8.158Z" transform="translate(-1001.995 -1026.454)" fill="#466eb6"/>
  <g id="Group_19293" data-name="Group 19293" transform="translate(162.192 88.784)">
    <g id="Group_19292" data-name="Group 19292" transform="translate(0)">
      <path id="Path_60581" data-name="Path 60581" d="M2086.362,1122.969s8.489,3.7,9.239,3.864c.469.1,5.865-5.489,8.807-7.673.136-.1.658-.845.8-.919,1.751-.879-1.208,4.185-1.208,4.185s-6.259,7.959-7.675,8.641c-1.779.857-10.568-3.489-10.515-3.74Z" transform="translate(-2062.931 -1102.871)" fill="#f48c7f"/>
      <path id="Path_60582" data-name="Path 60582" d="M1950.488,1025.266c.366-2.5,2.1-7.827.5-9.956a5.97,5.97,0,0,0-9.261.012,15.146,15.146,0,0,0-2.132,4.519,22.605,22.605,0,0,1-1.2,3.013,6.022,6.022,0,0,1-1.789,2.46c-3.738,2.328-7.923,3.827-8.192,9.071-.32,6.219,6.493,14,14.859,10.234,3.2-1.442,7.4-6.1,8.767-9.33.618-1.454.322-1.3-.019-3.517C1951.717,1029.787,1950.194,1027.28,1950.488,1025.266Z" transform="translate(-1928.404 -1013.114)" fill="#184655"/>
      <path id="Path_60583" data-name="Path 60583" d="M2034.942,1122.281l11.365,6.253-2.68,4.07s-8.557-3.261-10.287-3.728S2032.973,1122.111,2034.942,1122.281Z" transform="translate(-2017.409 -1106.409)" fill="#355389"/>
      <path id="Path_60584" data-name="Path 60584" d="M2043.977,1082.448s-.3,4.328-.516,5.541c-.228,1.254-.366,6.474,2.241,7.111s1.628-6.431,1.671-7.7.3-5.384.3-5.384Z" transform="translate(-2026.638 -1072.001)" fill="#f7a491"/>
      <path id="Path_60585" data-name="Path 60585" d="M2047.423,1082.967a4.958,4.958,0,0,0,.71.835,3.453,3.453,0,0,0,2.85,1.082c.082-1.435.17-2.867.17-2.867l-3.694.431S2047.446,1082.645,2047.423,1082.967Z" transform="translate(-2030.121 -1072.001)" fill="#f47458"/>
      <path id="Path_60586" data-name="Path 60586" d="M2040.992,1027.995a4.459,4.459,0,0,0-2.8,1.3c-1.213,1.252-2.664,5.344.049,7.9s5.4.36,5.956-2.347S2045.126,1028.291,2040.992,1027.995Z" transform="translate(-2020.96 -1025.832)" fill="#f7a491"/>
      <path id="Path_60587" data-name="Path 60587" d="M2030.99,1024.625s-1.654,4.268-5.561,3.907c-1.77-.163-2.17,2.253-2.17,2.253s1.448-5.738,3.265-6.59S2030.99,1024.625,2030.99,1024.625Z" transform="translate(-2009.47 -1022.334)" fill="#184655"/>
      <path id="Path_60588" data-name="Path 60588" d="M2030.8,1055.5c.089.749-.249,1.4-.755,1.464s-.988-.5-1.077-1.247.25-1.4.755-1.464S2030.707,1054.75,2030.8,1055.5Z" transform="translate(-2014.333 -1048.268)" fill="#f7a491"/>
      <path id="Path_60589" data-name="Path 60589" d="M2184.045,1069.313l-9.621,19.658a.94.94,0,0,0,.157,1.2l7.028,4.116,8.785-17.421s-3.827-5.727-5.263-7.875C2184.865,1068.592,2184.318,1068.755,2184.045,1069.313Z" transform="translate(-2138.545 -1060.679)" fill="#b75742"/>
      <path id="Path_60590" data-name="Path 60590" d="M2182.919,1099.537l8.372-17.106c.273-.558.82-.721,1.086-.324l4.2,6.278-7.885,15.636-5.612-3.286A.94.94,0,0,1,2182.919,1099.537Z" transform="translate(-2145.805 -1071.891)" fill="#fae0b2"/>
      <path id="Path_60591" data-name="Path 60591" d="M2214.329,1112.377a2.026,2.026,0,0,1,.747-.6c.406-.108.9-.092.978.169.117.38-1.082.8-1.082.8l-.653.946A1.757,1.757,0,0,1,2214.329,1112.377Z" transform="translate(-2172.643 -1097.383)" fill="#f48c7f"/>
      <path id="Path_60592" data-name="Path 60592" d="M2045.406,1115.066s2.962,2.447,3.813,3.3a21.412,21.412,0,0,0,2.32,1.873l-2.395-3.312-1.517-1.416Z" transform="translate(-2028.398 -1100.246)" fill="#f7a491"/>
      <path id="Path_60593" data-name="Path 60593" d="M2074.8,1261.124a5.466,5.466,0,0,1-1.047-1.953c-1-5.152-5.7-19.089-10.83-19.089-4.467,0-18.263,10.819-24.714,17.072-1.863,1.806-1.737.274-.6.695.682.251,5.288,7.913,6.025,7.947,2.253.1,4.336-1.405,6.216-2.455a17.929,17.929,0,0,0,6.526-5.912,100.074,100.074,0,0,0,7.072-12.417,57.9,57.9,0,0,0,1.787,6.154c1.328,2.7,5.3,9.352,6.848,11.944l6.088-.165A31.182,31.182,0,0,1,2074.8,1261.124Z" transform="translate(-2021.026 -1207.089)" fill="#f48c7f"/>
      <path id="Path_60594" data-name="Path 60594" d="M2088.324,1259.7s-20.447,9.528-21.737,12.8-.3,8.139,2.679,9.131,21.439-14.789,21.439-14.789a31.153,31.153,0,0,0,5.757,7.345c1.8,1.587,4.84,2.882,6.576,4.045a4.629,4.629,0,0,1,1.861,2.01l4.268.2s-.719-.246-2.01-1.985C2102.8,1272.588,2092.689,1258.935,2088.324,1259.7Z" transform="translate(-2046.026 -1223.829)" fill="#f7a491"/>
      <path id="Path_60595" data-name="Path 60595" d="M2042.842,1251.689s6.568,7.08,7.858,16.41c0,0-10.29,4.433-15.352,7.113a9.91,9.91,0,0,1-12.506-3.077c-1.786-2.978,0-11.365,0-11.365l10.521-1.638Z" transform="translate(-2008.435 -1217.008)" fill="#13375b"/>
      <path id="Path_60596" data-name="Path 60596" d="M2267.523,1386.249c-.523-.2-.707,2.448-.792,3.038a1.4,1.4,0,0,0,.3,1.17c.216.15,8.648.316,10.261-.116a1.62,1.62,0,0,0,.377-.2c1.184-1.033-4.294-3.773-5.4-3.543A7.381,7.381,0,0,1,2267.523,1386.249Z" transform="translate(-2217.534 -1331.998)" fill="#355389"/>
      <path id="Path_60597" data-name="Path 60597" d="M2020.295,1122.984s-1.6-.015-3.319,3.68c-2.108,4.541.9,21.871.681,24.344,0,0,.743.854,5.071,1.48a6.7,6.7,0,0,0,6-2.184,39.806,39.806,0,0,1,.5-12.986c.8-3.411,1.223-6.718-1.942-9.785A23.524,23.524,0,0,0,2020.295,1122.984Z" transform="translate(-2003.456 -1107.012)" fill="#466eb6"/>
      <path id="Path_60598" data-name="Path 60598" d="M2315.469,1387.374c-.523-.2-.974,2.351-.935,2.974a2.545,2.545,0,0,0,.292,1.213c.217.15,8.657.273,10.269-.159a1.628,1.628,0,0,0,.377-.2c1.184-1.033-4.908-3.618-6.012-3.388C2318.478,1388.016,2317.823,1388.271,2315.469,1387.374Z" transform="translate(-2258.401 -1332.959)" fill="#466eb6"/>
      <path id="Path_60599" data-name="Path 60599" d="M2187.063,1063.813l-15.947,23.22c-.367.535-.28,1.187.182,1.359l10.784,4.02,12.755-18.285-6.364-10.545C2188.187,1063.106,2187.467,1063.224,2187.063,1063.813Z" transform="translate(-2135.639 -1055.994)" fill="#f47458"/>
      <path id="Path_60600" data-name="Path 60600" d="M2068.061,1162.365c-.2-.4-1.861.483-1.861.483a12.5,12.5,0,0,1-1.578.2c-.118-.062.99-.155.99-.155s1.81-.619,1.79-.822c-.083-.836-1.217.2-2.106.242a11.691,11.691,0,0,1-2.07-.093c-.26-.146.4-.475.4-.475s.871-.391.732-.62c-.338-.556-2.376.5-2.8.893a6.239,6.239,0,0,1-1.146,1.056c-2.176,1.231-4.784,3.343-7.862,4.825-1.019-.856-10.853-9.682-11.1-9.9l-5.371,4.23c.007.005,15.408,11.735,16.264,11.707,1.076-.035,7.489-6.8,9.225-8.417a5.788,5.788,0,0,1,2.365-.364,7.807,7.807,0,0,0,2.9-.65c.582-.615-2.145.006-1.886-.154a10.341,10.341,0,0,1,1.444-.234,2.215,2.215,0,0,0,1.37-.669c.161-.361-1.519.157-1.519.157l-1.4.086,1.34-.273S2068.261,1162.75,2068.061,1162.365Z" transform="translate(-2020.427 -1136.941)" fill="#f7a491"/>
      <path id="Path_60601" data-name="Path 60601" d="M2025.937,1132.812c-1.736-1.777-5.075-1.518-6.05,1.018a7.054,7.054,0,0,0,.05,3.474c1.235,2.978,8.437,7.841,8.437,7.841l3.97-5.409Z" transform="translate(-2006.424 -1114.434)" fill="#86b1f2"/>
    </g>
  </g>
  <g id="Group_19297" data-name="Group 19297" transform="translate(98.708 28.259)">
    <path id="Path_60602" data-name="Path 60602" d="M1556.392,761.3c0-.228.281-1.7.281-1.7s-.655-2.086-.721-2.091c-1.347-.1-2.364.819-2.136,2.05l.013.041a6.264,6.264,0,0,0,4.871,4.292c.524.094,1.078.192,1.645.292a9.256,9.256,0,0,1-.422-2.746A23.589,23.589,0,0,1,1556.392,761.3Z" transform="translate(-1544.756 -734.139)" fill="#f7a491"/>
    <path id="Path_60603" data-name="Path 60603" d="M1607.3,720.3c-.037-.112-11.844,7.568-11.844,7.568s-5.039.05-8.762.018a11.92,11.92,0,0,0,.468,3.289,72.443,72.443,0,0,0,8.823,1.358c1.776-.137,10.686-4.582,10.686-4.582S1607.325,720.386,1607.3,720.3Z" transform="translate(-1572.879 -702.341)" fill="#355389"/>
    <path id="Path_60604" data-name="Path 60604" d="M1712.931,742.422a81.107,81.107,0,0,1-2.779-16.41c-.2-5.942,1.638-11.268,2.581-12.241a19.511,19.511,0,0,1,3.59-1.141l-1.18,1.959a23.191,23.191,0,0,0-2.046,6.825c-1.51,7.41,5.274,22.237,4.93,22.332C1717.641,743.852,1713.027,743.181,1712.931,742.422Z" transform="translate(-1678.381 -695.784)" fill="#466eb6"/>
    <path id="Path_60605" data-name="Path 60605" d="M1539.171,711.855l-2.072,1.353,6.2,10.428,1.947-8.467Z" transform="translate(-1530.497 -695.123)" fill="#9bc1f9"/>
    <path id="Path_60606" data-name="Path 60606" d="M1560.167,700.574l2.6,8.655,2.086-3.739Z" transform="translate(-1550.211 -685.482)" fill="#9bc1f9"/>
    <path id="Path_60607" data-name="Path 60607" d="M1603.483,693.7l2,7.267-14.76-1.34Z" transform="translate(-1576.328 -679.608)" fill="#9bc1f9"/>
    <path id="Path_60608" data-name="Path 60608" d="M1547.977,895.47s-6.273,7.663-6.29,8.777c-.025,1.6-7.439,1.164-5.829.478.37-.158,1.537-.749,1.627-.826.479-.413,5.421-10.086,5.421-10.086Z" transform="translate(-1529.241 -850.629)" fill="#f7a491"/>
    <path id="Path_60609" data-name="Path 60609" d="M1495.033,965.189l4.769-1.484a7.053,7.053,0,0,0,4.326.294,6.376,6.376,0,0,1,.816,2.594c.02.254.145,1.006-.106,1.044-.911.14-3.435.081-6.282.146a24.06,24.06,0,0,1-6.233-.747C1489.925,966.245,1495.033,965.189,1495.033,965.189Z" transform="translate(-1491.683 -910.362)" fill="#07345a"/>
    <path id="Path_60610" data-name="Path 60610" d="M1585.585,837.738a34.082,34.082,0,0,1-10.918-5.062c-6.1-4.365-12.97-8.906-15.682-8.536-2.184.3-14.888,17.766-14.888,17.766l6.154,2.68,11.117-11.414s11.356,11.707,15.087,12.506C1584.951,847.5,1587.667,841.233,1585.585,837.738Z" transform="translate(-1536.478 -791.067)" fill="#b75742"/>
    <path id="Path_60611" data-name="Path 60611" d="M1534.927,718.674l8.558,18.131a.3.3,0,0,0,.2.163l5.716,1.589-7.3-17.961-6.806-2.33A.3.3,0,0,0,1534.927,718.674Z" transform="translate(-1528.616 -700.586)" fill="#f7cc7f"/>
    <path id="Path_60612" data-name="Path 60612" d="M1711.919,597.709a1.979,1.979,0,0,1,3.346,0,1.471,1.471,0,0,1,1.987.252s1.965-.874,2.849,2.118a1.031,1.031,0,0,1,1.324.9,3.117,3.117,0,0,1-.232,2.146s.647.368.524,1.551a1.433,1.433,0,0,1-.894,1.257s-.009,1.674-.661,2.261a2.347,2.347,0,0,1-1.654.472s-.145.925-.988.952-1.976-.636-2.862-.161a10.039,10.039,0,0,1-3.355.405,3.407,3.407,0,0,1-2.41-3.746,2.047,2.047,0,0,1-.538-2.814s-1.22-2.3.4-3.962A4.746,4.746,0,0,1,1711.919,597.709Z" transform="translate(-1676.482 -596.751)" fill="#07345a"/>
    <path id="Path_60613" data-name="Path 60613" d="M1651.9,1072.8s.347,9.429.563,11.026-4,6.378-3.463,4.713c.124-.383.443-1.651.443-1.77,0-.632-1.563-11.388-1.563-11.388Z" transform="translate(-1625.174 -1003.597)" fill="#f7a491"/>
    <path id="Path_60614" data-name="Path 60614" d="M1637.249,1156.387l2.008-4.572a7.056,7.056,0,0,0,3.06-3.072,6.374,6.374,0,0,1,2.493,1.085c.2.151.855.55.719.765-.492.78-2.193,2.646-4.01,4.837a24.063,24.063,0,0,1-4.652,4.215C1634.7,1160.935,1637.249,1156.387,1637.249,1156.387Z" transform="translate(-1615.014 -1068.501)" fill="#07345a"/>
    <path id="Path_60615" data-name="Path 60615" d="M1631.1,905.231c.44-.448-4.462-24.57-2.084-26.9s18.263-5.757,18.263-5.757l2.084-7.345s6.642,1.948,9.33,5.955c1.47,2.192-.033,7.19-.3,7.742-2.269,4.724-7.874,4.963-11.952,4.921-3.752-.039-10.413-.091-10.413-.091l-.016,21.323a12.936,12.936,0,0,1-2.928.347A6.925,6.925,0,0,1,1631.1,905.231Z" transform="translate(-1608.491 -826.203)" fill="#f47458"/>
    <path id="Path_60616" data-name="Path 60616" d="M1731.52,707.091l4.3-1.546a1.664,1.664,0,0,0,.169,0c.462-.058,5.538,16.551,7.194,22.834s-.513,5.091-.513,5.091a18.842,18.842,0,0,1-8.21,2.531c-4.591.173-3.672-5.36-3.672-5.36s-2.417-11.552-2.134-15.484A20.978,20.978,0,0,1,1731.52,707.091Z" transform="translate(-1694.188 -689.73)" fill="#fff"/>
    <path id="Path_60617" data-name="Path 60617" d="M1748.63,667.562l-.017,2.117,0,.376s-.292,3.625.746,4.185,3.5-4.846,3.5-4.846l-1.116-6.15Z" transform="translate(-1711.229 -653.579)" fill="#f7a491"/>
    <path id="Path_60618" data-name="Path 60618" d="M1752.349,665.245a7.1,7.1,0,0,1-3.492,4.431l.017-2.114,3.114-4.317Z" transform="translate(-1711.472 -653.58)" fill="#f47458"/>
    <path id="Path_60619" data-name="Path 60619" d="M1726.278,619.871a3.3,3.3,0,0,0-3.956,3.154,24.951,24.951,0,0,0,.133,3.178c.311,2.869,2.146,5.468,3.446,5.3a6.182,6.182,0,0,0,4.273-6.554C1729.936,622.432,1728.394,620.311,1726.278,619.871Z" transform="translate(-1688.79 -616.451)" fill="#f7a491"/>
    <path id="Path_60620" data-name="Path 60620" d="M1769.992,650.819a.962.962,0,1,0,.79-1.262A1.064,1.064,0,0,0,1769.992,650.819Z" transform="translate(-1729.526 -641.876)" fill="#f7a491"/>
    <path id="Path_60621" data-name="Path 60621" d="M1703.042,608.41c-1.208,1.234-1.474,2.91-.593,3.743s2.573.509,3.781-.725,1.474-2.91.593-3.743S1704.25,607.176,1703.042,608.41Z" transform="translate(-1671.366 -605.7)" fill="#07345a"/>
    <path id="Path_60622" data-name="Path 60622" d="M1734.468,612.391c.059.462.664.766,1.353.679s1.2-.533,1.141-1-.664-.766-1.353-.679S1734.41,611.929,1734.468,612.391Z" transform="translate(-1699.171 -609.255)" fill="#07345a"/>
    <path id="Path_60623" data-name="Path 60623" d="M1712.026,638.866a1.073,1.073,0,1,0,.928-1.211A1.079,1.079,0,0,0,1712.026,638.866Z" transform="translate(-1679.988 -631.701)" fill="#07345a"/>
    <path id="Path_60624" data-name="Path 60624" d="M1769.928,703.612s4.21-.684,5.626-.081c.9.383,2.046,8.018,2.046,8.018s.046,7.722.573,9.9c1.784,7.381,4.276,13.845,4,14.21-1.831,1.505-9.492,2.9-10.074,2.184C1765.666,729.921,1769.928,703.612,1769.928,703.612Z" transform="translate(-1728.297 -687.796)" fill="#466eb6"/>
    <path id="Path_60625" data-name="Path 60625" d="M1706.82,741.31s-4.217,13.034-6.062,14.4-10.142-11.422-10.142-11.422-3.672-2.084-3.934-2.106c-1.042-.087,2.172-.623,2.172-.623l.4-3.325s.157.024,1.117,1.1c1.3,1.46,2.424,3.725,2.953,4.107l5.558,4.218,2.829-9.032Z" transform="translate(-1658.158 -717.666)" fill="#f7a491"/>
    <path id="Path_60626" data-name="Path 60626" d="M1584.435,733.4l1.745-.17,7.481,18.618-1.923-.487Z" transform="translate(-1570.952 -713.387)" fill="#fae0b2"/>
    <path id="Path_60627" data-name="Path 60627" d="M1611.336,700.388l4.5,21.92a.6.6,0,0,1-.565.715l-11.348.351-7.481-18.618,14.116-4.811A.6.6,0,0,1,1611.336,700.388Z" transform="translate(-1581.215 -684.916)" fill="#f7cc7f"/>
    <path id="Path_60628" data-name="Path 60628" d="M1721.866,713.211l-1.439,3.151s7.072,11.638,9.255,10.992,6.3-13.25,6.948-16.724-.695-6.352-2.481-6.8-3.176,2.581-3.722,3.871-2.531,10.521-2.531,10.521Z" transform="translate(-1687.175 -688.228)" fill="#86b1f2"/>
    <g id="Group_19294" data-name="Group 19294" transform="translate(9.195 23.47)">
      <path id="Path_60629" data-name="Path 60629" d="M1555.292,759.892a4.936,4.936,0,0,1-.35-.75c-.085-.284,1.656-1.272,2.345-.822S1556.136,759.457,1555.292,759.892Z" transform="translate(-1554.939 -758.205)" fill="#f7a491"/>
    </g>
    <g id="Group_19295" data-name="Group 19295" transform="translate(9.097 24.451)">
      <path id="Path_60630" data-name="Path 60630" d="M1554.786,766.8a2.791,2.791,0,0,1-.522-.743c-.085-.284,2.232-1.45,2.92-1S1555.629,766.364,1554.786,766.8Z" transform="translate(-1554.261 -764.955)" fill="#f7a491"/>
    </g>
    <g id="Group_19296" data-name="Group 19296" transform="translate(9.89 25.41)">
      <path id="Path_60631" data-name="Path 60631" d="M1560.244,773.228a2.793,2.793,0,0,1-.522-.743c-.085-.284,1.656-1.272,2.345-.822S1561.088,772.793,1560.244,773.228Z" transform="translate(-1559.719 -771.548)" fill="#f7a491"/>
    </g>
    <path id="Path_60632" data-name="Path 60632" d="M1684.893,745.016h-.362a2.38,2.38,0,0,1-.51-.055c-.668-.146-2.494-.508-2.636-.144-.174.447,2.63.968,2.63.968s-3.077-.4-3.077.124,3.126.794,3.126.794-2.729-.1-2.779.2,3.35,1.142,3.35,1.142-2.754-.6-3.027-.248,4.318,2.023,4.318,2.023Z" transform="translate(-1653.427 -723.159)" fill="#f7a491"/>
    <path id="Path_60633" data-name="Path 60633" d="M1563.085,779.371s1.505-.849,1.9-.584-1.29,1.538-1.29,1.538l.2.465S1562.82,779.955,1563.085,779.371Z" transform="translate(-1552.67 -752.281)" fill="#f7a491"/>
  </g>
</svg>
