<svg xmlns="http://www.w3.org/2000/svg" width="171" height="43.416" viewBox="0 0 171 43.416">
  <g id="Group_19659" data-name="Group 19659" transform="translate(-570.291 -103.974)">
    <g id="Group_19657" data-name="Group 19657" transform="translate(570.291 103.974)">
      <g id="Group_19656" data-name="Group 19656" transform="translate(6.64 7.411)">
        <path id="Path_60991" data-name="Path 60991" d="M583.139,145.89l-.025-.013a1.219,1.219,0,0,1-.416-1.8,11.074,11.074,0,0,1,3.283-2.921,13.865,13.865,0,0,1,4.337-1.648l.089-.017a8.312,8.312,0,0,0,6.6-8.471,7.339,7.339,0,0,0-5.2-6.717l-.017-.005a12.906,12.906,0,0,1-9.089-4.781,1.231,1.231,0,0,1,.419-1.819h0a1.239,1.239,0,0,1,1.574.372,10.455,10.455,0,0,0,7.453,3.787l.124.012.253.077a9.8,9.8,0,0,1,6.942,8.975,10.8,10.8,0,0,1-8.6,10.991l-.079.016a11.379,11.379,0,0,0-3.556,1.349,8.618,8.618,0,0,0-2.543,2.244A1.227,1.227,0,0,1,583.139,145.89Z" transform="translate(-582.461 -117.556)" fill="#e8801f"/>
      </g>
      <path id="Path_60992" data-name="Path 60992" d="M583.842,125.682a24.649,24.649,0,0,0,3.427-5.456,7.978,7.978,0,0,0,.725-3.291c0-4.834-4.559-8.973-7.99-11.666a5.988,5.988,0,0,0-9.706,4.506h-.008v31.678h0a5.986,5.986,0,0,0,5.982,5.938,6.044,6.044,0,0,0,3.734-1.3c3.472-2.728,8.078-6.921,7.981-11.812a7.987,7.987,0,0,0-.721-3.141A24.681,24.681,0,0,0,583.842,125.682Zm-11.081-7.921a35.367,35.367,0,0,0,7.657,7.921,35.416,35.416,0,0,0-7.657,7.92Zm2.448-11.156a3.55,3.55,0,0,1,3.273.6c3.025,2.375,7.047,5.968,7.047,9.728a5.458,5.458,0,0,1-.507,2.279,21.977,21.977,0,0,1-2.9,4.674l-.088-.071a31.958,31.958,0,0,1-7.6-8.008,11.261,11.261,0,0,1-1.672-5.717v-.256A3.51,3.51,0,0,1,575.209,106.6Zm3.277,37.55a3.552,3.552,0,0,1-3.279.6,3.512,3.512,0,0,1-2.449-3.306h0v-.169a11.478,11.478,0,0,1,1.768-5.881,32.28,32.28,0,0,1,7.5-7.854l.089-.071a22.019,22.019,0,0,1,2.9,4.673,5.555,5.555,0,0,1,.505,2.177C585.6,138.12,581.544,141.752,578.486,144.155Z" transform="translate(-570.291 -103.974)" fill="#1ecfcf"/>
    </g>
    <g id="Group_19658" data-name="Group 19658" transform="translate(599.96 116.318)">
      <path id="Path_60993" data-name="Path 60993" d="M633.645,126.649c3.72,0,6.657,1.706,6.657,5.594a4.069,4.069,0,0,1-2.713,3.888,4.842,4.842,0,0,1,3.328,4.5c0,4.279-3.412,5.594-7.272,5.594h-8.978V126.649Zm-5.874,8.111h5.9c2.349,0,3.524-.923,3.524-2.461,0-1.371-1.2-2.825-3.552-2.825h-5.874Zm0,8.559h5.874c1.734,0,4.14-.559,4.14-2.713,0-2.1-2.322-3.048-4.112-3.048h-5.9Z" transform="translate(-624.667 -126.621)" fill="#413283"/>
      <path id="Path_60994" data-name="Path 60994" d="M678.241,126.7v11.439c0,5.762-3.8,8.643-8.53,8.475-4.363-.112-8.083-2.909-8.083-8.475V126.7h3.1v11.439c0,3.552,2.07,5.482,4.979,5.594,3.132.168,5.426-1.874,5.426-5.594V126.7Z" transform="translate(-641.461 -126.644)" fill="#413283"/>
      <path id="Path_60995" data-name="Path 60995" d="M701.356,146.228V126.649h3.1v19.579Z" transform="translate(-659.513 -126.621)" fill="#413283"/>
      <path id="Path_60996" data-name="Path 60996" d="M719.917,126.649v16.67h10.321v2.909H716.785V126.649Z" transform="translate(-666.523 -126.621)" fill="#413283"/>
      <path id="Path_60997" data-name="Path 60997" d="M755.005,126.649c6.684,0,9.733,4.782,9.817,9.621.112,4.95-2.964,9.957-9.817,9.957h-7.412V126.649ZM750.7,143.207h4.307c4.782,0,6.8-3.524,6.713-6.965-.084-3.3-2.1-6.6-6.713-6.6H750.7Z" transform="translate(-680.522 -126.621)" fill="#413283"/>
      <path id="Path_60998" data-name="Path 60998" d="M801.219,146.228H786.758V126.649h14.377V129.7H789.89v5.287h10.8v2.909h-10.8v5.258h11.328Z" transform="translate(-698.318 -126.621)" fill="#413283"/>
      <path id="Path_60999" data-name="Path 60999" d="M838.254,146.2H834.59l-5.958-6.768h-4.139V146.2H821.36V126.6c3.049,0,6.069.028,9.118.028,4.531,0,6.909,3.1,6.909,6.405a5.778,5.778,0,0,1-5.314,6.1l5.845,6.517Zm-13.761-16.726v7.1h5.958c2.6,0,3.748-1.65,3.748-3.5a3.487,3.487,0,0,0-3.72-3.608Z" transform="translate(-714.04 -126.598)" fill="#413283"/>
      <path id="Path_61000" data-name="Path 61000" d="M856.755,126.649h14.292v1.426l-10.768,15.16h10.768v2.993H855.86v-1.762l10.573-14.935h-9.677Z" transform="translate(-729.716 -126.621)" fill="#413283"/>
    </g>
  </g>
</svg>